<?xml version="1.0" encoding="UTF-8" standalone="no"?>
<!-- Created with Inkscape (http://www.inkscape.org/) -->

<svg
   xmlns:dc="http://purl.org/dc/elements/1.1/"
   xmlns:cc="http://creativecommons.org/ns#"
   xmlns:rdf="http://www.w3.org/1999/02/22-rdf-syntax-ns#"
   xmlns:svg="http://www.w3.org/2000/svg"
   xmlns="http://www.w3.org/2000/svg"
   xmlns:sodipodi="http://sodipodi.sourceforge.net/DTD/sodipodi-0.dtd"
   xmlns:inkscape="http://www.inkscape.org/namespaces/inkscape"
   id="svg3004"
   version="1.1"
   inkscape:version="0.48.2 r9819"
   width="525"
   height="525"
   xml:space="preserve"
   sodipodi:docname="source_thick.svg"
   inkscape:export-filename="/Users/sechel/workspace/ConformalLab/etc/logo/logo1024.png"
   inkscape:export-xdpi="175.53999"
   inkscape:export-ydpi="175.53999"><metadata
     id="metadata3010"><rdf:RDF><cc:Work
         rdf:about=""><dc:format>image/svg+xml</dc:format><dc:type
           rdf:resource="http://purl.org/dc/dcmitype/StillImage" /><dc:title></dc:title></cc:Work></rdf:RDF></metadata><defs
     id="defs3008"><clipPath
       clipPathUnits="userSpaceOnUse"
       id="clipPath3022"><path
         d="M 0,450 0,0 483,0 483,450 0,450 z"
         id="path3024"
         inkscape:connector-curvature="0" /></clipPath><clipPath
       clipPathUnits="userSpaceOnUse"
       id="clipPath3032"><path
         d="M 0,450 0,0 483,0 483,450 0,450 z"
         id="path3034"
         inkscape:connector-curvature="0" /></clipPath><clipPath
       clipPathUnits="userSpaceOnUse"
       id="clipPath3040"><path
         d="M 0,450 0,0 483,0 483,450 0,450 z"
         id="path3042"
         inkscape:connector-curvature="0" /></clipPath><clipPath
       clipPathUnits="userSpaceOnUse"
       id="clipPath3048"><path
         d="M 0,450 0,0 483,0 483,450 0,450 z"
         id="path3050"
         inkscape:connector-curvature="0" /></clipPath><clipPath
       clipPathUnits="userSpaceOnUse"
       id="clipPath3056"><path
         d="M 0,450 0,0 483,0 483,450 0,450 z"
         id="path3058"
         inkscape:connector-curvature="0" /></clipPath></defs><sodipodi:namedview
     pagecolor="#ffffff"
     bordercolor="#666666"
     borderopacity="1"
     objecttolerance="10"
     gridtolerance="10"
     guidetolerance="10"
     inkscape:pageopacity="0"
     inkscape:pageshadow="2"
     inkscape:window-width="1280"
     inkscape:window-height="752"
     id="namedview3006"
     showgrid="false"
     inkscape:zoom="0.71922861"
     inkscape:cx="387.46659"
     inkscape:cy="202.72054"
     inkscape:window-x="0"
     inkscape:window-y="0"
     inkscape:window-maximized="1"
     inkscape:current-layer="g3012"
     fit-margin-top="0"
     fit-margin-left="0"
     fit-margin-right="0"
     fit-margin-bottom="0" /><g
     id="g3012"
     inkscape:groupmode="layer"
     inkscape:label="source"
     transform="matrix(1.25,0,0,-1.25,-27.457627,550.90042)"><g
       id="g3014" /><g
       id="g3052"
       transform="translate(-9.5338983,5.720339)"><g
         id="g3054"
         clip-path="url(#clipPath3056)"
         transform="matrix(-1,0,0,-1,483,450)"><path
           sodipodi:type="arc"
           style="fill:#ffffff;fill-opacity:1;stroke:none"
           id="path4032"
           sodipodi:cx="260"
           sodipodi:cy="260"
           sodipodi:rx="260"
           sodipodi:ry="260"
           d="m 520,260 a 260,260 0 1 1 -520,0 260,260 0 1 1 520,0 z"
           transform="matrix(0.79838057,0,0,-0.79674797,34.606552,433.13127)" /><path
           d="m 349.24,386.33 c -0.94,-1.38 -1.89,-2.75 -2.83,-4.12 l -0.57,-0.82 1.64,-1.14 0.57,0.82 c 0.95,1.38 1.9,2.75 2.84,4.13 l 0.57,0.82 -1.65,1.13 -0.57,-0.82 z m -6.83,-9.87 c -0.95,-1.37 -1.91,-2.74 -2.86,-4.1 l -0.58,-0.82 1.64,-1.15 0.57,0.82 c 0.96,1.37 1.92,2.73 2.87,4.1 l 0.58,0.82 -1.64,1.15 -0.58,-0.82 z m -6.9,-9.82 c -0.96,-1.36 -1.93,-2.72 -2.89,-4.08 l -0.59,-0.81 1.63,-1.16 0.58,0.81 c 0.97,1.36 1.94,2.72 2.9,4.08 l 0.58,0.82 -1.63,1.15 -0.58,-0.81 z m -6.97,-9.77 c -0.98,-1.35 -1.95,-2.7 -2.93,-4.05 l -0.59,-0.81 1.62,-1.17 0.59,0.81 c 0.98,1.35 1.96,2.7 2.93,4.06 l 0.59,0.81 -1.63,1.17 -0.58,-0.82 z m -7.05,-9.7 c -0.98,-1.35 -1.97,-2.69 -2.96,-4.03 l -0.59,-0.81 1.61,-1.18 0.59,0.8 c 0.99,1.35 1.98,2.69 2.96,4.04 l 0.6,0.8 -1.62,1.18 -0.59,-0.8 z m -7.12,-9.65 c -0.99,-1.34 -1.99,-2.68 -2.99,-4.01 l -0.6,-0.8 1.6,-1.2 0.6,0.8 c 1,1.34 2,2.67 2.99,4.01 l 0.6,0.8 -1.6,1.2 -0.6,-0.8 z m -7.19,-9.6 c -1.01,-1.33 -2.01,-2.66 -3.02,-3.98 l -0.61,-0.8 1.59,-1.21 0.61,0.8 c 1.01,1.33 2.02,2.65 3.02,3.99 l 0.61,0.79 -1.6,1.21 -0.6,-0.8 z m -7.27,-9.54 c -1.01,-1.32 -2.03,-2.64 -3.05,-3.95 l -0.61,-0.8 1.58,-1.22 0.62,0.79 c 1.02,1.32 2.03,2.64 3.05,3.96 l 0.61,0.8 -1.59,1.22 -0.61,-0.8 z m -7.34,-9.48 c -1.02,-1.31 -2.05,-2.62 -3.07,-3.93 l -0.62,-0.79 1.57,-1.23 0.62,0.78 c 1.03,1.31 2.06,2.63 3.08,3.94 l 0.62,0.79 -1.58,1.23 -0.62,-0.79 z m -7.4,-9.42 c -1.04,-1.31 -2.07,-2.61 -3.11,-3.91 l -0.63,-0.78 1.57,-1.25 0.62,0.78 c 1.04,1.3 2.08,2.61 3.11,3.92 l 0.63,0.78 -1.57,1.24 -0.62,-0.78 z m -7.48,-9.37 c -1.05,-1.29 -2.09,-2.59 -3.14,-3.88 l -0.63,-0.78 1.55,-1.26 0.63,0.78 c 1.05,1.29 2.1,2.59 3.14,3.89 l 0.63,0.78 -1.56,1.25 -0.62,-0.78 z m -7.55,-9.31 c -1.06,-1.28 -2.11,-2.57 -3.17,-3.86 l -0.64,-0.77 1.55,-1.27 0.63,0.77 c 1.06,1.29 2.12,2.58 3.17,3.87 l 0.64,0.77 -1.55,1.27 -0.63,-0.78 z m -7.62,-9.24 c -1.07,-1.28 -2.13,-2.56 -3.2,-3.84 l -0.64,-0.77 1.53,-1.28 0.64,0.77 c 1.07,1.28 2.14,2.56 3.2,3.84 l 0.64,0.77 -1.53,1.27 -0.64,-0.76 z m -7.69,-9.19 c -1.08,-1.28 -2.15,-2.55 -3.23,-3.82 l -0.65,-0.76 1.53,-1.29 0.65,0.76 c 1.07,1.27 2.15,2.54 3.22,3.82 l 0.65,0.76 -1.53,1.29 -0.64,-0.76 z m -7.76,-9.13 c -1.09,-1.27 -2.17,-2.53 -3.26,-3.79 l -0.65,-0.76 1.51,-1.3 0.66,0.75 c 1.08,1.26 2.17,2.53 3.25,3.79 l 0.65,0.76 -1.51,1.3 -0.65,-0.75 z m -7.83,-9.07 c -1.1,-1.26 -2.19,-2.51 -3.29,-3.77 l -0.66,-0.75 1.51,-1.32 0.66,0.76 c 1.1,1.25 2.19,2.5 3.28,3.76 l 0.66,0.76 -1.51,1.31 -0.65,-0.75 z m -7.9,-9.02 c -0.2,-0.21 -0.39,-0.43 -0.58,-0.65 -0.91,-1.03 -1.82,-2.06 -2.74,-3.08 l -0.66,-0.75 1.49,-1.33 0.67,0.75 c 0.91,1.02 1.82,2.05 2.74,3.08 0.19,0.22 0.38,0.44 0.58,0.66 l 0.66,0.75 -1.5,1.32 -0.66,-0.75 z m -7.98,-8.95 c -1.11,-1.24 -2.23,-2.48 -3.34,-3.72 l -0.67,-0.74 1.48,-1.34 0.67,0.74 c 1.12,1.24 2.24,2.48 3.35,3.72 l 0.67,0.74 -1.49,1.34 -0.67,-0.74 z m -8.04,-8.9 c -1.12,-1.23 -2.25,-2.46 -3.37,-3.69 l -0.68,-0.74 1.47,-1.35 0.68,0.74 c 1.13,1.23 2.25,2.46 3.38,3.69 l 0.67,0.74 -1.48,1.35 -0.67,-0.74 z m -8.11,-8.84 c -1.14,-1.22 -2.27,-2.44 -3.4,-3.66 l -0.69,-0.73 1.47,-1.37 0.68,0.74 c 1.14,1.22 2.27,2.44 3.4,3.66 l 0.68,0.74 -1.46,1.36 -0.68,-0.74 z m -8.18,-8.77 c -1.14,-1.22 -2.29,-2.43 -3.43,-3.64 l -0.69,-0.73 1.45,-1.37 0.69,0.73 c 1.15,1.21 2.29,2.42 3.43,3.64 l 0.69,0.73 -1.46,1.37 -0.68,-0.73 z m -8.25,-8.71 c -1.15,-1.21 -2.3,-2.41 -3.46,-3.62 l -0.69,-0.72 1.44,-1.38 0.69,0.72 c 1.16,1.2 2.31,2.41 3.47,3.61 l 0.69,0.73 -1.45,1.38 -0.69,-0.72 z m -8.32,-8.65 c -1.15,-1.2 -2.32,-2.4 -3.48,-3.59 l -0.7,-0.71 1.43,-1.4 0.7,0.71 c 1.17,1.2 2.33,2.4 3.49,3.59 l 0.7,0.72 -1.44,1.39 -0.7,-0.71 z m -8.38,-8.59 c -1.16,-1.19 -2.34,-2.37 -3.51,-3.56 l -0.7,-0.71 1.42,-1.41 0.7,0.71 c 1.18,1.19 2.35,2.38 3.52,3.57 l 0.7,0.71 -1.42,1.4 -0.71,-0.71 z m -8.44,-8.52 c -1.18,-1.18 -2.36,-2.36 -3.54,-3.53 l -0.71,-0.71 1.41,-1.42 0.71,0.71 c 1.18,1.17 2.36,2.35 3.54,3.53 l 0.71,0.71 -1.42,1.42 -0.7,-0.71 z m -8.51,-8.46 c -1.19,-1.17 -2.38,-2.33 -3.57,-3.5 l -0.71,-0.7 1.4,-1.43 0.71,0.7 c 1.19,1.17 2.38,2.34 3.57,3.51 l 0.71,0.7 -1.4,1.43 -0.71,-0.71 z m -8.57,-8.38 c -1.2,-1.16 -2.39,-2.32 -3.59,-3.48 l -0.72,-0.69 1.38,-1.44 0.72,0.69 c 1.21,1.16 2.4,2.32 3.6,3.48 l 0.72,0.7 -1.4,1.43 -0.71,-0.69 z m -8.64,-8.32 c -1.2,-1.15 -2.41,-2.3 -3.61,-3.45 l -0.73,-0.69 1.38,-1.45 0.72,0.69 c 1.21,1.15 2.42,2.3 3.62,3.45 l 0.73,0.69 -1.38,1.45 -0.73,-0.69 z m -8.7,-8.26 c -1.21,-1.14 -2.43,-2.28 -3.64,-3.42 l -0.73,-0.68 1.36,-1.46 0.73,0.68 c 1.22,1.14 2.44,2.28 3.65,3.43 l 0.73,0.68 -1.37,1.46 -0.73,-0.69 z m -8.76,-8.19 c -1.22,-1.13 -2.45,-2.26 -3.67,-3.39 l -0.74,-0.68 1.36,-1.47 0.73,0.68 c 1.23,1.13 2.46,2.26 3.68,3.4 l 0.73,0.68 -1.36,1.46 -0.73,-0.68 z m -8.83,-8.12 c -1.23,-1.13 -2.46,-2.25 -3.7,-3.37 l -0.74,-0.67 1.35,-1.48 0.74,0.67 c 1.23,1.12 2.47,2.24 3.7,3.37 l 0.74,0.67 -1.35,1.48 -0.74,-0.67 z m -8.89,-8.06 c -1.24,-1.12 -2.48,-2.23 -3.73,-3.34 l -0.74,-0.67 1.33,-1.49 0.75,0.67 c 1.24,1.11 2.48,2.23 3.73,3.34 l 0.74,0.67 -1.34,1.49 -0.74,-0.67 z m -8.96,-7.99 c -1.25,-1.11 -2.5,-2.21 -3.75,-3.31 l -0.75,-0.66 1.32,-1.51 0.75,0.66 c 1.26,1.11 2.51,2.21 3.76,3.32 l 0.75,0.66 -1.33,1.5 -0.75,-0.66 z M 86.76,91.51 C 86.6,91.37 86.44,91.23 86.28,91.09 l -0.76,-0.66 1.32,-1.51 0.75,0.66 c 0.17,0.14 0.33,0.28 0.49,0.42 l 0.75,0.66 -1.31,1.51 -0.76,-0.66 z m 268.67,303.92 c -0.74,-1.11 -1.49,-2.21 -2.24,-3.32 l -0.56,-0.82 1.65,-1.13 0.56,0.83 c 0.75,1.1 1.5,2.21 2.25,3.32 l 0.56,0.83 -1.66,1.11 -0.56,-0.82 z M 175.7,407.47 c 0.51,-1.58 1.02,-3.17 1.51,-4.76 l 0.3,-0.96 1.91,0.59 -0.3,0.96 c -0.5,1.6 -1,3.19 -1.52,4.79 l -0.31,0.95 -1.9,-0.61 0.31,-0.96 z m 3.52,-11.46 c 0.47,-1.59 0.93,-3.19 1.37,-4.79 l 0.27,-0.96 1.93,0.53 -0.27,0.97 c -0.45,1.6 -0.91,3.21 -1.38,4.81 l -0.28,0.96 -1.92,-0.56 0.28,-0.96 z m 3.18,-11.52 c 0.42,-1.6 0.83,-3.21 1.22,-4.82 l 0.24,-0.97 1.95,0.48 -0.24,0.97 c -0.4,1.62 -0.81,3.23 -1.23,4.84 l -0.25,0.97 -1.94,-0.5 0.25,-0.97 z m 2.83,-11.58 c 0.08,-0.34 0.16,-0.68 0.24,-1.02 0.29,-1.29 0.57,-2.57 0.85,-3.86 l 0.21,-0.98 1.96,0.43 -0.21,0.97 c -0.28,1.3 -0.57,2.59 -0.86,3.88 -0.08,0.34 -0.16,0.68 -0.24,1.03 l -0.22,0.97 -1.95,-0.45 0.22,-0.97 z m 2.51,-11.74 c 0.33,-1.63 0.64,-3.27 0.94,-4.9 l 0.19,-0.99 1.96,0.37 -0.18,0.98 c -0.31,1.65 -0.62,3.29 -0.95,4.93 l -0.19,0.98 -1.96,-0.39 0.19,-0.98 z m 2.16,-11.78 c 0.27,-1.64 0.54,-3.28 0.8,-4.92 l 0.15,-0.99 1.97,0.3 -0.15,0.99 c -0.25,1.65 -0.52,3.3 -0.8,4.95 l -0.16,0.98 -1.98,-0.33 0.17,-0.98 z m 1.81,-11.82 c 0.22,-1.65 0.44,-3.29 0.65,-4.94 l 0.12,-0.99 1.98,0.25 -0.12,0.99 c -0.21,1.65 -0.42,3.31 -0.65,4.96 l -0.14,0.99 -1.98,-0.27 0.14,-0.99 z m 1.45,-11.85 c 0.03,-0.21 0.05,-0.41 0.07,-0.62 0.15,-1.45 0.3,-2.91 0.44,-4.36 l 0.1,-0.99 1.99,0.19 -0.1,0.99 c -0.14,1.46 -0.29,2.92 -0.44,4.38 -0.02,0.21 -0.05,0.42 -0.07,0.62 l -0.11,1 -1.98,-0.22 0.1,-0.99 z m 1.12,-11.96 c 0.13,-1.66 0.25,-3.32 0.36,-4.98 l 0.06,-1 2,0.13 -0.07,1 c -0.11,1.67 -0.23,3.34 -0.36,5.01 l -0.08,1 -1.99,-0.16 0.08,-1 z m 0.76,-11.97 c 0.08,-1.66 0.15,-3.32 0.21,-4.99 l 0.04,-1 2,0.08 -0.04,1 c -0.06,1.67 -0.13,3.34 -0.21,5.01 l -0.05,1 -2,-0.1 0.05,-1 z m 0.41,-11.97 c 0.03,-1.66 0.05,-3.33 0.06,-4.99 l 0.01,-1 2,0.01 -0.01,1 c -0.01,1.68 -0.03,3.35 -0.06,5.02 l -0.02,1 -2,-0.04 0.02,-1 z m 0.05,-11.97 c -0.01,-1.66 -0.04,-3.32 -0.08,-4.98 l -0.02,-1 2,-0.05 0.02,1 c 0.04,1.67 0.07,3.34 0.08,5.01 l 0.01,1 -2,0.02 -0.01,-1 z m -0.29,-11.96 c -0.07,-1.66 -0.14,-3.31 -0.23,-4.97 l -0.05,-1 2,-0.1 0.05,0.99 c 0.09,1.67 0.16,3.34 0.23,5.01 l 0.04,1 -2,0.07 -0.04,-1 z m -0.65,-11.93 c -0.11,-1.66 -0.23,-3.31 -0.37,-4.97 l -0.08,-0.99 1.99,-0.17 0.09,1 c 0.13,1.66 0.26,3.33 0.37,4.99 l 0.07,1 -2,0.14 -0.07,-1 z m -0.99,-11.91 c -0.16,-1.65 -0.33,-3.3 -0.52,-4.95 l -0.11,-0.99 1.99,-0.22 0.11,0.99 c 0.19,1.66 0.36,3.32 0.52,4.98 l 0.1,0.99 -1.99,0.2 -0.1,-1 z m -1.34,-11.87 c -0.21,-1.64 -0.43,-3.29 -0.66,-4.93 l -0.14,-0.99 1.98,-0.28 0.14,0.99 c 0.23,1.65 0.45,3.3 0.66,4.96 l 0.13,0.99 -1.98,0.25 -0.13,-0.99 z m -1.69,-11.82 c -0.26,-1.64 -0.53,-3.28 -0.8,-4.92 l -0.17,-0.98 1.97,-0.34 0.17,0.99 c 0.28,1.64 0.55,3.29 0.81,4.93 l 0.15,0.99 -1.97,0.31 -0.16,-0.98 z m -2.03,-11.78 c -0.31,-1.63 -0.63,-3.26 -0.95,-4.89 l -0.2,-0.98 1.96,-0.39 0.2,0.98 c 0.33,1.64 0.64,3.27 0.95,4.91 l 0.19,0.99 -1.97,0.37 -0.18,-0.99 z m -2.38,-11.71 c -0.36,-1.62 -0.72,-3.24 -1.09,-4.86 l -0.23,-0.98 1.95,-0.45 0.22,0.98 c 0.38,1.62 0.75,3.25 1.1,4.88 l 0.22,0.98 -1.96,0.43 -0.21,-0.98 z m -2.73,-11.65 c -0.4,-1.61 -0.81,-3.22 -1.23,-4.83 l -0.25,-0.96 1.93,-0.51 0.25,0.97 c 0.43,1.61 0.84,3.23 1.25,4.85 l 0.24,0.97 -1.94,0.48 -0.25,-0.97 z m -3.06,-11.57 c -0.45,-1.6 -0.91,-3.2 -1.38,-4.79 l -0.28,-0.96 1.92,-0.57 0.28,0.96 c 0.47,1.61 0.93,3.21 1.38,4.82 l 0.28,0.96 -1.93,0.55 -0.27,-0.97 z m -3.41,-11.48 c -0.5,-1.59 -1,-3.18 -1.52,-4.76 l -0.31,-0.95 1.9,-0.62 0.31,0.95 c 0.52,1.59 1.03,3.18 1.53,4.78 l 0.3,0.96 -1.91,0.59 -0.3,-0.95 z m -3.75,-11.4 c -0.54,-1.57 -1.1,-3.15 -1.66,-4.72 l -0.34,-0.94 1.88,-0.68 0.34,0.95 c 0.57,1.57 1.13,3.15 1.67,4.74 l 0.33,0.94 -1.89,0.66 -0.33,-0.95 z m -4.08,-11.28 c -0.59,-1.55 -1.18,-3.09 -1.79,-4.64 l -0.36,-0.93 1.86,-0.73 0.36,0.93 c 0.61,1.55 1.21,3.11 1.8,4.67 l 0.35,0.93 -1.87,0.71 -0.35,-0.94 z m -4.39,-11.1 c -0.63,-1.53 -1.28,-3.06 -1.93,-4.59 l -0.39,-0.92 1.84,-0.79 0.39,0.92 c 0.66,1.54 1.3,3.08 1.94,4.62 l 0.38,0.92 -1.85,0.77 -0.38,-0.93 z m -4.72,-10.99 c -0.68,-1.52 -1.37,-3.03 -2.07,-4.54 l -0.42,-0.91 1.82,-0.84 0.41,0.91 c 0.71,1.52 1.4,3.04 2.08,4.57 l 0.41,0.91 -1.83,0.82 -0.4,-0.92 z m -5.06,-10.86 c -0.72,-1.51 -1.46,-3 -2.2,-4.5 l -0.45,-0.89 1.79,-0.89 0.45,0.89 c 0.74,1.5 1.48,3 2.21,4.51 l 0.44,0.9 -1.8,0.88 -0.44,-0.9 z m -5.37,-10.72 c -0.77,-1.47 -1.54,-2.93 -2.32,-4.39 l -0.47,-0.88 1.76,-0.95 0.47,0.89 c 0.79,1.46 1.57,2.93 2.33,4.41 l 0.46,0.89 -1.77,0.92 -0.46,-0.89 z m -5.66,-10.5 c -0.81,-1.45 -1.62,-2.89 -2.45,-4.33 l -0.5,-0.87 1.74,-0.99 0.49,0.86 c 0.84,1.45 1.66,2.9 2.47,4.36 l 0.49,0.87 -1.75,0.98 -0.49,-0.88 z m -5.98,-10.36 c -0.85,-1.42 -1.71,-2.85 -2.58,-4.27 l -0.53,-0.85 1.71,-1.05 0.52,0.86 c 0.88,1.42 1.74,2.85 2.6,4.29 l 0.51,0.86 -1.71,1.02 -0.52,-0.86 z m -6.3,-10.21 c -0.89,-1.4 -1.8,-2.81 -2.72,-4.2 l -0.54,-0.84 1.67,-1.1 0.55,0.84 c 0.92,1.41 1.83,2.81 2.73,4.23 l 0.54,0.84 -1.69,1.08 -0.54,-0.85 z m 40.54,355.17 c 0.44,-1.26 0.89,-2.53 1.32,-3.79 l 0.32,-0.95 1.9,0.65 -0.33,0.95 c -0.44,1.27 -0.88,2.54 -1.33,3.81 l -0.33,0.94 -1.89,-0.67 0.34,-0.94 z M 79.05,330.96 c 1.36,-0.98 2.7,-1.97 4.04,-2.96 l 0.8,-0.6 1.2,1.6 -0.81,0.6 c -1.34,1 -2.69,2 -4.06,2.98 l -0.81,0.58 -1.17,-1.62 0.81,-0.58 z m 9.57,-7.21 c 1.31,-1.03 2.6,-2.06 3.88,-3.11 l 0.77,-0.63 1.27,1.54 -0.77,0.64 c -1.29,1.05 -2.6,2.1 -3.91,3.13 l -0.78,0.62 -1.24,-1.57 0.78,-0.62 z m 9.2,-7.57 c 1.25,-1.07 2.49,-2.16 3.71,-3.25 l 0.75,-0.67 1.33,1.49 -0.74,0.67 c -1.24,1.1 -2.49,2.2 -3.75,3.28 l -0.76,0.65 -1.3,-1.52 0.76,-0.65 z m 8.83,-7.93 c 1.22,-1.14 2.43,-2.3 3.63,-3.46 l 0.72,-0.7 1.39,1.44 -0.72,0.69 c -1.2,1.17 -2.42,2.34 -3.65,3.49 l -0.73,0.68 -1.37,-1.46 0.73,-0.68 z m 8.59,-8.4 c 1.16,-1.19 2.31,-2.39 3.45,-3.6 l 0.69,-0.73 1.45,1.37 -0.68,0.73 c -1.15,1.22 -2.31,2.43 -3.48,3.62 l -0.7,0.72 -1.43,-1.4 0.7,-0.71 z m 8.17,-8.73 c 1.1,-1.24 2.2,-2.48 3.28,-3.73 l 0.66,-0.76 1.51,1.31 -0.66,0.76 c -1.09,1.26 -2.19,2.51 -3.3,3.75 l -0.67,0.75 -1.49,-1.34 0.67,-0.74 z m 7.76,-9.04 c 1.04,-1.28 2.08,-2.56 3.1,-3.86 l 0.62,-0.78 1.57,1.24 -0.62,0.79 c -1.03,1.3 -2.07,2.59 -3.13,3.88 l -0.63,0.77 -1.55,-1.27 0.64,-0.77 z m 7.37,-9.39 c 1,-1.33 1.99,-2.67 2.96,-4.02 l 0.59,-0.81 1.62,1.17 -0.58,0.81 c -0.99,1.36 -1.98,2.71 -2.99,4.05 l -0.6,0.8 -1.6,-1.2 0.6,-0.8 z m 6.99,-9.73 c 0.94,-1.37 1.86,-2.75 2.78,-4.13 l 0.55,-0.84 1.67,1.11 -0.55,0.83 c -0.92,1.4 -1.86,2.78 -2.8,4.16 l -0.57,0.83 -1.65,-1.13 0.57,-0.83 z m 6.54,-10 c 0.88,-1.4 1.74,-2.82 2.59,-4.24 l 0.52,-0.86 1.71,1.03 -0.51,0.86 c -0.86,1.43 -1.73,2.86 -2.61,4.27 l -0.53,0.85 -1.7,-1.06 0.53,-0.85 z m 6.09,-10.25 c 0.35,-0.61 0.7,-1.23 1.04,-1.85 0.46,-0.83 0.92,-1.67 1.37,-2.5 l 0.48,-0.88 1.76,0.95 -0.48,0.88 c -0.46,0.84 -0.92,1.68 -1.38,2.52 -0.35,0.62 -0.7,1.25 -1.05,1.87 l -0.49,0.87 -1.74,-0.99 0.49,-0.87 z m 5.66,-10.53 c 0.76,-1.48 1.5,-2.97 2.23,-4.47 l 0.44,-0.89 1.79,0.87 -0.43,0.9 c -0.74,1.51 -1.48,3 -2.24,4.49 l -0.46,0.9 -1.78,-0.91 0.45,-0.89 z m 5.21,-10.77 c 0.69,-1.51 1.36,-3.03 2.02,-4.55 l 0.4,-0.92 1.84,0.8 -0.4,0.92 c -0.67,1.53 -1.35,3.06 -2.04,4.58 l -0.42,0.91 -1.82,-0.83 0.42,-0.91 z m 4.73,-10.98 c 0.62,-1.54 1.23,-3.08 1.83,-4.63 l 0.35,-0.93 1.87,0.71 -0.36,0.94 c -0.6,1.56 -1.21,3.11 -1.84,4.66 l -0.38,0.93 -1.85,-0.75 0.38,-0.93 z m 4.25,-11.17 c 0.55,-1.56 1.1,-3.13 1.62,-4.7 l 0.32,-0.95 1.9,0.64 -0.32,0.95 c -0.53,1.58 -1.08,3.16 -1.64,4.74 l -0.33,0.94 -1.89,-0.67 0.34,-0.95 z m 3.76,-11.33 c 0.49,-1.59 0.97,-3.18 1.43,-4.77 l 0.27,-0.96 1.93,0.55 -0.28,0.96 c -0.47,1.61 -0.94,3.21 -1.44,4.81 l -0.29,0.95 -1.91,-0.59 0.29,-0.95 z m 3.28,-11.5 c 0.42,-1.6 0.83,-3.21 1.22,-4.83 l 0.23,-0.97 1.95,0.47 -0.24,0.98 c -0.39,1.62 -0.8,3.24 -1.23,4.86 l -0.25,0.97 -1.94,-0.51 0.26,-0.97 z m 2.78,-11.63 c 0.35,-1.62 0.69,-3.25 1.01,-4.88 l 0.19,-0.99 1.96,0.39 -0.19,0.98 c -0.32,1.65 -0.66,3.29 -1.02,4.92 l -0.21,0.98 -1.95,-0.42 0.21,-0.98 z m 2.27,-11.72 c 0.28,-1.63 0.54,-3.27 0.8,-4.91 l 0.15,-0.99 1.97,0.31 -0.15,0.98 c -0.25,1.65 -0.52,3.3 -0.8,4.95 l -0.17,0.98 -1.97,-0.34 0.17,-0.98 z m 1.76,-11.8 c 0.21,-1.65 0.41,-3.3 0.59,-4.95 l 0.11,-1 1.98,0.22 -0.1,1 c -0.19,1.66 -0.38,3.32 -0.59,4.98 l -0.13,0.99 -1.98,-0.25 0.12,-0.99 z m 1.26,-11.9 c 0.13,-1.66 0.26,-3.32 0.37,-4.98 l 0.06,-1 2,0.13 -0.07,1 c -0.11,1.68 -0.23,3.35 -0.37,5.02 l -0.08,0.99 -2,-0.16 0.09,-1 z m 0.74,-11.97 c 0.01,-0.29 0.02,-0.59 0.03,-0.88 0.05,-1.36 0.09,-2.72 0.12,-4.08 l 0.02,-1 2,0.05 -0.02,1 c -0.03,1.37 -0.07,2.74 -0.12,4.1 -0.01,0.3 -0.02,0.59 -0.04,0.89 l -0.04,1 -1.99,-0.08 0.04,-1 z m 0.22,-11.9 c -0.01,-1.65 -0.03,-3.31 -0.07,-4.96 l -0.02,-1 2,-0.04 0.02,1 c 0.04,1.66 0.06,3.33 0.07,5 l 0,1 -2,0 0,-1 z m -0.3,-11.92 c -0.08,-1.66 -0.17,-3.32 -0.28,-4.98 l -0.06,-1 1.99,-0.13 0.07,1 c 0.11,1.67 0.2,3.34 0.28,5.01 l 0.04,1 -1.99,0.1 -0.05,-1 z m -0.82,-11.96 c -0.15,-1.66 -0.31,-3.32 -0.49,-4.98 l -0.11,-1 1.99,-0.21 0.11,0.99 c 0.18,1.68 0.34,3.35 0.5,5.02 l 0.08,1 -1.99,0.18 -0.09,-1 z m -1.33,-11.91 c -0.22,-1.63 -0.45,-3.26 -0.7,-4.89 l -0.15,-0.98 1.98,-0.31 0.15,0.99 c 0.25,1.64 0.48,3.28 0.7,4.93 l 0.13,0.99 -1.98,0.26 -0.13,-0.99 z M 189.8,57.99 c -0.29,-1.62 -0.59,-3.25 -0.91,-4.88 l -0.2,-0.98 1.97,-0.38 0.19,0.98 c 0.32,1.64 0.63,3.27 0.92,4.91 l 0.17,0.99 -1.96,0.35 -0.18,-0.99 z m -2.35,-11.7 c -0.36,-1.63 -0.74,-3.25 -1.13,-4.87 l -0.23,-0.97 1.94,-0.47 0.24,0.97 c 0.39,1.63 0.77,3.27 1.14,4.9 l 0.21,0.98 -1.95,0.43 -0.22,-0.97 z M 184.59,34.61 C 184.15,33 183.7,31.38 183.23,29.76 l -0.27,-0.96 1.92,-0.55 0.28,0.96 c 0.47,1.63 0.92,3.25 1.36,4.88 l 0.26,0.97 -1.94,0.52 -0.25,-0.97 z M 69.95,337.24 c 1.12,-0.74 2.24,-1.49 3.35,-2.25 l 0.82,-0.56 1.13,1.65 -0.83,0.56 c -1.11,0.76 -2.24,1.52 -3.37,2.27 l -0.83,0.55 -1.1,-1.67 0.83,-0.55 z M 49.38,251.47 c 1.64,-0.3 3.28,-0.63 4.91,-0.96 l 0.98,-0.21 0.41,1.96 -0.98,0.2 c -1.65,0.34 -3.3,0.67 -4.95,0.98 l -0.98,0.18 -0.37,-1.96 0.98,-0.19 z M 61.11,249 c 1.61,-0.38 3.22,-0.77 4.83,-1.18 l 0.96,-0.25 0.5,1.94 -0.97,0.25 c -1.61,0.41 -3.24,0.81 -4.86,1.19 l -0.98,0.23 -0.45,-1.95 0.97,-0.23 z m 11.52,-2.98 c 1.59,-0.45 3.17,-0.91 4.74,-1.39 l 0.96,-0.29 0.58,1.92 -0.96,0.29 c -1.58,0.48 -3.17,0.94 -4.77,1.39 l -0.96,0.28 -0.55,-1.93 0.96,-0.27 z m 11.36,-3.49 c 1.59,-0.53 3.17,-1.07 4.74,-1.63 l 0.94,-0.33 0.67,1.88 -0.94,0.34 c -1.59,0.56 -3.18,1.1 -4.78,1.64 l -0.95,0.31 -0.63,-1.9 0.95,-0.31 z m 11.31,-4.05 c 1.55,-0.6 3.1,-1.21 4.64,-1.84 l 0.92,-0.37 0.76,1.85 -0.93,0.38 c -1.55,0.63 -3.11,1.24 -4.67,1.84 l -0.94,0.36 -0.72,-1.86 0.94,-0.36 z m 11.06,-4.55 c 1.51,-0.66 3.02,-1.34 4.53,-2.03 l 0.9,-0.42 0.84,1.82 -0.91,0.42 c -1.51,0.69 -3.03,1.38 -4.56,2.05 l -0.92,0.4 -0.8,-1.83 0.92,-0.41 z m 10.79,-5.02 c 1.48,-0.73 2.95,-1.47 4.42,-2.23 l 0.89,-0.45 0.91,1.77 -0.88,0.46 c -1.48,0.76 -2.96,1.51 -4.45,2.25 l -0.9,0.44 -0.89,-1.79 0.9,-0.45 z m 10.59,-5.52 c 1.46,-0.8 2.91,-1.62 4.35,-2.45 l 0.87,-0.5 1,1.73 -0.87,0.5 c -1.45,0.84 -2.91,1.66 -4.38,2.47 l -0.88,0.48 -0.96,-1.75 0.87,-0.48 z m 10.35,-6.02 c 1.42,-0.86 2.83,-1.74 4.23,-2.64 l 0.84,-0.53 1.08,1.68 -0.85,0.54 c -1.41,0.9 -2.82,1.79 -4.25,2.66 l -0.85,0.52 -1.05,-1.7 0.85,-0.53 z m 10.05,-6.46 c 1.37,-0.93 2.73,-1.87 4.09,-2.82 l 0.81,-0.58 1.16,1.64 -0.82,0.57 c -1.37,0.96 -2.74,1.91 -4.12,2.85 l -0.83,0.56 -1.12,-1.66 0.83,-0.56 z m 9.72,-6.9 c 0.1,-0.08 0.21,-0.16 0.32,-0.24 1.22,-0.92 2.44,-1.84 3.65,-2.78 l 0.79,-0.61 1.22,1.58 -0.79,0.61 c -1.21,0.95 -2.44,1.88 -3.67,2.8 -0.11,0.08 -0.22,0.16 -0.33,0.24 l -0.8,0.6 -1.2,-1.6 0.81,-0.6 z m 9.43,-7.36 c 1.29,-1.06 2.56,-2.12 3.83,-3.2 l 0.76,-0.64 1.29,1.52 -0.76,0.65 c -1.27,1.08 -2.56,2.15 -3.85,3.21 l -0.78,0.64 -1.27,-1.55 0.78,-0.63 z m 9.08,-7.78 c 1.24,-1.11 2.46,-2.23 3.68,-3.36 l 0.73,-0.68 1.36,1.46 -0.73,0.68 c -1.22,1.14 -2.46,2.27 -3.7,3.39 l -0.75,0.66 -1.33,-1.49 0.74,-0.66 z m 8.71,-8.18 c 1.19,-1.16 2.36,-2.33 3.52,-3.52 l 0.7,-0.71 1.43,1.4 -0.7,0.71 c -1.17,1.2 -2.35,2.38 -3.54,3.55 l -0.72,0.7 -1.4,-1.43 0.71,-0.7 z m 8.34,-8.56 c 1.13,-1.21 2.25,-2.44 3.35,-3.67 l 0.67,-0.75 1.49,1.33 -0.67,0.75 c -1.11,1.25 -2.24,2.48 -3.38,3.71 l -0.68,0.73 -1.46,-1.37 0.68,-0.73 z m 7.94,-8.93 c 1.07,-1.26 2.13,-2.54 3.18,-3.83 l 0.64,-0.77 1.54,1.27 -0.63,0.77 c -1.06,1.3 -2.13,2.58 -3.21,3.86 l -0.65,0.76 -1.52,-1.3 0.65,-0.76 z m 7.52,-9.28 c 1.02,-1.32 2.03,-2.64 3.02,-3.98 l 0.6,-0.8 1.6,1.2 -0.6,0.8 c -1,1.34 -2.01,2.68 -3.03,4 l -0.61,0.79 -1.59,-1.22 0.61,-0.79 z m 7.11,-9.63 c 0.42,-0.59 0.83,-1.18 1.24,-1.78 0.53,-0.77 1.06,-1.54 1.59,-2.32 l 0.56,-0.83 1.65,1.12 -0.56,0.83 c -0.53,0.78 -1.06,1.56 -1.59,2.34 -0.42,0.6 -0.83,1.19 -1.25,1.79 l -0.58,0.82 -1.63,-1.16 0.57,-0.81 z m 6.64,-9.91 c 0.89,-1.4 1.77,-2.8 2.64,-4.22 l 0.52,-0.85 1.7,1.04 -0.52,0.86 c -0.87,1.42 -1.75,2.84 -2.65,4.24 l -0.54,0.85 -1.68,-1.08 0.53,-0.84 z m 6.19,-10.21 c 0.83,-1.44 1.65,-2.88 2.45,-4.34 l 0.48,-0.88 1.75,0.97 -0.48,0.88 c -0.81,1.46 -1.63,2.92 -2.46,4.37 l -0.5,0.87 -1.74,-1 0.5,-0.87 z m 5.74,-10.5 c 0.76,-1.48 1.51,-2.97 2.25,-4.46 l 0.44,-0.9 1.79,0.88 -0.44,0.9 c -0.74,1.51 -1.5,3.01 -2.27,4.5 l -0.46,0.88 -1.77,-0.91 0.46,-0.89 z m 5.24,-10.76 c 0.69,-1.5 1.37,-3 2.03,-4.52 l 0.4,-0.91 1.83,0.8 -0.4,0.91 c -0.66,1.53 -1.34,3.05 -2.04,4.56 l -0.42,0.91 -1.81,-0.84 0.41,-0.91 z m 4.73,-10.92 c 0.62,-1.53 1.23,-3.07 1.83,-4.62 l 0.35,-0.94 1.87,0.72 -0.36,0.94 c -0.6,1.56 -1.21,3.11 -1.84,4.66 l -0.38,0.92 -1.85,-0.75 0.38,-0.93 z m 4.24,-11.17 c 0.55,-1.56 1.09,-3.14 1.62,-4.72 l 0.32,-0.95 1.89,0.63 -0.31,0.95 c -0.53,1.59 -1.08,3.18 -1.63,4.76 l -0.34,0.94 -1.88,-0.66 0.33,-0.95 z m 3.74,-11.4 c 0.48,-1.59 0.95,-3.18 1.4,-4.78 l 0.27,-0.97 1.93,0.54 -0.27,0.97 c -0.46,1.61 -0.93,3.22 -1.41,4.82 l -0.29,0.96 -1.92,-0.58 0.29,-0.96 z m 3.2,-11.48 c 0.4,-1.6 0.8,-3.2 1.17,-4.81 l 0.23,-0.97 1.95,0.46 -0.23,0.97 c -0.38,1.62 -0.77,3.23 -1.18,4.84 l -0.25,0.97 -1.94,-0.49 0.25,-0.97 z m 2.66,-11.58 c 0.34,-1.63 0.66,-3.25 0.96,-4.89 l 0.19,-0.98 1.96,0.37 -0.18,0.98 c -0.31,1.64 -0.63,3.28 -0.97,4.92 l -0.2,0.98 -1.96,-0.4 0.2,-0.98 z m 2.16,-11.78 c 0.26,-1.64 0.51,-3.3 0.74,-4.95 l 0.14,-0.99 1.98,0.27 -0.14,0.99 c -0.23,1.67 -0.48,3.34 -0.75,5 l -0.16,0.99 -1.97,-0.32 0.16,-0.99 z m 1.62,-11.94 c 0.06,-0.53 0.12,-1.06 0.18,-1.58 l 0.1,-1 1.99,0.22 -0.1,0.99 c -0.06,0.53 -0.12,1.06 -0.18,1.59 l -0.11,1 -1.99,-0.23 0.11,-0.99 z M 38.46,253.28 c 1.33,-0.19 2.66,-0.39 3.99,-0.6 l 0.98,-0.16 0.32,1.97 -0.99,0.16 c -1.33,0.21 -2.67,0.42 -4.02,0.61 l -0.99,0.15 -0.28,-1.98 0.99,-0.15 z m 12.65,-65.34 c 1.65,0.25 3.3,0.49 4.95,0.72 l 0.99,0.14 -0.27,1.98 -0.99,-0.13 c -1.66,-0.24 -3.32,-0.48 -4.98,-0.74 l -0.99,-0.15 0.3,-1.98 0.99,0.16 z m 11.88,1.62 c 1.65,0.19 3.3,0.38 4.95,0.55 l 1,0.1 -0.21,1.99 -0.99,-0.1 c -1.66,-0.17 -3.32,-0.36 -4.98,-0.56 l -1,-0.11 0.24,-1.99 0.99,0.12 z m 11.88,1.19 c 1.65,0.14 3.3,0.26 4.94,0.37 l 1,0.07 -0.13,2 -1,-0.07 c -1.66,-0.11 -3.32,-0.24 -4.98,-0.37 l -0.99,-0.09 0.16,-1.99 1,0.08 z m 11.87,0.77 c 1.67,0.08 3.34,0.15 5,0.2 l 1,0.03 -0.06,2 -1,-0.03 c -1.68,-0.05 -3.36,-0.12 -5.04,-0.2 l -1,-0.05 0.1,-1.99 1,0.04 z m 12.01,0.35 c 1.66,0.02 3.33,0.03 4.99,0.02 l 1,0 0.01,2 -1,0 c -1.68,0.01 -3.35,0 -5.03,-0.02 l -1,-0.01 0.03,-2 1,0.01 z m 11.97,-0.07 c 1.66,-0.04 3.32,-0.1 4.98,-0.16 l 1,-0.04 0.08,2 -1,0.04 c -1.67,0.06 -3.34,0.11 -5.01,0.16 l -1,0.02 -0.05,-2 1,-0.02 z m 11.93,-0.51 c 1.66,-0.1 3.31,-0.21 4.96,-0.33 l 1,-0.08 0.15,2 -1,0.07 c -1.66,0.13 -3.32,0.24 -4.99,0.34 l -1,0.06 -0.12,-2 1,-0.06 z m 11.9,-0.92 c 1.66,-0.16 3.31,-0.33 4.97,-0.52 l 0.99,-0.11 0.22,1.99 -0.99,0.11 c -1.67,0.19 -3.33,0.36 -5,0.52 l -1,0.09 -0.19,-1.99 1,-0.09 z m 11.91,-1.36 c 1.65,-0.21 3.3,-0.44 4.94,-0.69 l 0.99,-0.14 0.29,1.98 -0.99,0.14 c -1.65,0.25 -3.31,0.48 -4.97,0.7 l -0.99,0.13 -0.26,-1.99 0.99,-0.13 z m 11.83,-1.77 c 1.64,-0.28 3.28,-0.56 4.91,-0.86 l 0.98,-0.18 0.36,1.96 -0.98,0.18 c -1.64,0.3 -3.29,0.59 -4.94,0.87 l -0.98,0.17 -0.33,-1.98 0.98,-0.16 z m 11.75,-2.19 c 1.62,-0.34 3.25,-0.68 4.86,-1.04 l 0.98,-0.21 0.43,1.95 -0.97,0.22 c -1.63,0.35 -3.26,0.7 -4.9,1.04 l -0.98,0.2 -0.4,-1.96 0.98,-0.2 z m 11.66,-2.61 c 1.62,-0.39 3.24,-0.8 4.85,-1.21 l 0.96,-0.25 0.5,1.94 -0.97,0.25 c -1.62,0.41 -3.24,0.82 -4.86,1.21 l -0.98,0.24 -0.47,-1.94 0.97,-0.24 z m 11.59,-3.03 c 1.6,-0.44 3.2,-0.9 4.79,-1.38 l 0.96,-0.28 0.57,1.92 -0.96,0.28 c -1.6,0.48 -3.21,0.94 -4.82,1.39 l -0.96,0.27 -0.54,-1.93 0.96,-0.27 z m 11.46,-3.43 c 1.58,-0.5 3.16,-1.02 4.74,-1.55 l 0.95,-0.32 0.63,1.9 -0.95,0.32 c -1.58,0.53 -3.17,1.05 -4.76,1.56 l -0.95,0.3 -0.61,-1.9 0.95,-0.31 z m 11.33,-3.83 c 1.56,-0.56 3.12,-1.14 4.68,-1.72 l 0.93,-0.35 0.71,1.87 -0.94,0.35 c -1.56,0.59 -3.13,1.17 -4.71,1.73 l -0.94,0.34 -0.67,-1.89 0.94,-0.33 z m 11.18,-4.24 c 1.55,-0.61 3.08,-1.24 4.62,-1.88 l 0.92,-0.38 0.77,1.84 -0.92,0.39 c -1.55,0.64 -3.09,1.27 -4.64,1.89 l -0.93,0.37 -0.75,-1.86 0.93,-0.37 z m 11.03,-4.63 c 1.52,-0.67 3.04,-1.35 4.55,-2.04 l 0.91,-0.42 0.83,1.82 -0.91,0.41 c -1.52,0.7 -3.04,1.39 -4.57,2.06 l -0.92,0.4 -0.8,-1.83 0.91,-0.4 z m 10.86,-5.02 c 1.5,-0.72 2.99,-1.46 4.48,-2.21 l 0.89,-0.44 0.9,1.78 -0.89,0.45 c -1.5,0.75 -3,1.49 -4.5,2.22 l -0.9,0.44 -0.88,-1.8 0.9,-0.44 z m 10.69,-5.41 c 0.81,-0.42 1.61,-0.86 2.42,-1.29 0.66,-0.35 1.31,-0.71 1.97,-1.07 l 0.87,-0.48 0.96,1.75 -0.87,0.49 c -0.66,0.36 -1.32,0.71 -1.98,1.07 -0.81,0.44 -1.62,0.87 -2.44,1.3 l -0.88,0.47 -0.94,-1.77 0.89,-0.47 z m 10.46,-5.77 c 1.44,-0.83 2.87,-1.66 4.3,-2.51 l 0.86,-0.51 1.02,1.72 -0.86,0.51 c -1.43,0.85 -2.88,1.69 -4.32,2.53 l -0.87,0.49 -1,-1.73 0.87,-0.5 z m 10.26,-6.14 c 1.41,-0.88 2.81,-1.77 4.21,-2.67 l 0.84,-0.54 1.08,1.68 -0.84,0.54 c -1.4,0.91 -2.82,1.8 -4.24,2.69 l -0.85,0.53 -1.05,-1.7 0.85,-0.53 z m 10.04,-6.51 c 1.38,-0.93 2.76,-1.87 4.12,-2.82 l 0.83,-0.57 1.14,1.64 -0.82,0.57 c -1.38,0.96 -2.76,1.9 -4.15,2.84 l -0.83,0.56 -1.12,-1.66 0.83,-0.56 z m 9.83,-6.88 c 0.13,-0.09 0.26,-0.19 0.38,-0.28 1.21,-0.88 2.42,-1.77 3.61,-2.67 l 0.81,-0.6 1.19,1.6 -0.8,0.6 c -1.2,0.9 -2.41,1.8 -3.63,2.69 -0.13,0.09 -0.26,0.18 -0.38,0.28 l -0.81,0.59 -1.18,-1.62 0.81,-0.59 z m 9.51,-7.18 c 1.31,-1.02 2.61,-2.05 3.9,-3.1 l 0.78,-0.62 1.25,1.55 -0.78,0.63 c -1.29,1.05 -2.6,2.09 -3.91,3.11 l -0.79,0.62 -1.23,-1.57 0.78,-0.62 z m 9.28,-7.53 c 1.27,-1.07 2.54,-2.15 3.79,-3.24 l 0.76,-0.66 1.31,1.51 -0.76,0.66 c -1.26,1.1 -2.53,2.18 -3.81,3.26 l -0.77,0.64 -1.28,-1.53 0.76,-0.64 z m 9.03,-7.88 c 1.24,-1.12 2.46,-2.25 3.68,-3.38 l 0.74,-0.69 1.36,1.47 -0.73,0.68 c -1.23,1.14 -2.47,2.28 -3.71,3.4 l -0.74,0.68 -1.34,-1.49 0.74,-0.67 z M 337,96.75 c 1.19,-1.15 2.36,-2.31 3.53,-3.47 l 0.71,-0.71 1.41,1.41 -0.71,0.71 c -1.17,1.18 -2.35,2.34 -3.54,3.5 l -0.72,0.69 -1.39,-1.43 0.71,-0.7 z m 8.38,-8.43 c 1.15,-1.2 2.29,-2.4 3.42,-3.62 l 0.68,-0.73 1.46,1.37 -0.68,0.73 c -1.14,1.22 -2.28,2.43 -3.43,3.63 l -0.69,0.72 -1.45,-1.38 0.69,-0.72 z m 8.11,-8.77 c 1.11,-1.24 2.21,-2.49 3.3,-3.74 l 0.65,-0.76 1.52,1.31 -0.66,0.75 c -1.1,1.27 -2.2,2.53 -3.32,3.77 l -0.66,0.75 -1.49,-1.33 0.66,-0.75 z m 7.83,-9.08 c 1.07,-1.29 2.13,-2.58 3.18,-3.89 l 0.62,-0.77 1.56,1.25 -0.63,0.78 c -1.05,1.31 -2.12,2.61 -3.19,3.9 l -0.64,0.77 -1.54,-1.28 0.64,-0.76 z M 40.23,186.07 c 1.32,0.25 2.64,0.49 3.95,0.72 l 0.99,0.17 -0.35,1.97 -0.98,-0.17 c -1.33,-0.23 -2.65,-0.47 -3.98,-0.72 l -0.98,-0.19 0.36,-1.96 0.99,0.18 z m 28.03,-48.34 c 1.5,0.72 3.01,1.44 4.52,2.15 l 0.91,0.42 -0.85,1.81 -0.91,-0.42 c -1.51,-0.71 -3.02,-1.43 -4.53,-2.15 l -0.91,-0.44 0.87,-1.8 0.9,0.43 z m 10.88,5.1 c 1.51,0.69 3.03,1.38 4.55,2.07 l 0.91,0.41 -0.82,1.82 -0.91,-0.41 c -1.52,-0.68 -3.05,-1.38 -4.57,-2.07 l -0.91,-0.42 0.84,-1.82 0.91,0.42 z m 10.95,4.92 c 1.52,0.67 3.05,1.33 4.58,1.99 l 0.92,0.4 -0.8,1.83 -0.91,-0.39 c -1.54,-0.66 -3.07,-1.33 -4.6,-2 l -0.91,-0.41 0.8,-1.83 0.92,0.41 z m 11.01,4.73 c 1.54,0.65 3.07,1.28 4.61,1.92 l 0.93,0.38 -0.76,1.85 -0.93,-0.38 c -1.54,-0.64 -3.08,-1.28 -4.62,-1.93 l -0.92,-0.38 0.77,-1.85 0.92,0.39 z m 11.09,4.55 c 1.54,0.62 3.09,1.24 4.63,1.85 l 0.93,0.36 -0.73,1.86 -0.93,-0.36 c -1.55,-0.61 -3.1,-1.23 -4.65,-1.85 l -0.93,-0.37 0.75,-1.86 0.93,0.37 z m 11.14,4.37 c 1.56,0.6 3.11,1.19 4.67,1.77 l 0.93,0.35 -0.7,1.87 -0.94,-0.35 c -1.56,-0.58 -3.12,-1.17 -4.67,-1.77 l -0.94,-0.36 0.72,-1.86 0.93,0.35 z m 11.21,4.19 c 1.56,0.57 3.12,1.13 4.69,1.69 l 0.94,0.34 -0.67,1.88 -0.95,-0.34 c -1.56,-0.55 -3.13,-1.12 -4.7,-1.69 l -0.93,-0.34 0.68,-1.88 0.94,0.34 z m 11.27,4.01 c 1.56,0.54 3.14,1.08 4.71,1.61 l 0.94,0.32 -0.64,1.89 -0.95,-0.32 c -1.57,-0.53 -3.15,-1.07 -4.72,-1.62 l -0.94,-0.32 0.65,-1.89 0.95,0.33 z m 11.35,3.82 c 1.58,0.53 3.16,1.04 4.75,1.55 l 0.95,0.31 -0.61,1.9 -0.95,-0.31 c -1.59,-0.51 -3.18,-1.02 -4.77,-1.55 l -0.95,-0.31 0.63,-1.9 0.95,0.31 z m 11.42,3.66 c 1.59,0.49 3.18,0.98 4.78,1.46 l 0.95,0.29 -0.58,1.92 -0.95,-0.29 c -1.6,-0.49 -3.2,-0.98 -4.79,-1.47 l -0.96,-0.3 0.6,-1.91 0.95,0.3 z m 11.48,3.46 c 1.6,0.47 3.2,0.93 4.8,1.39 l 0.96,0.28 -0.55,1.92 -0.96,-0.28 c -1.61,-0.46 -3.21,-0.92 -4.81,-1.39 l -0.96,-0.28 0.56,-1.92 0.96,0.28 z m 11.53,3.28 c 1.6,0.44 3.21,0.88 4.82,1.31 l 0.96,0.26 -0.52,1.93 -0.96,-0.26 c -1.61,-0.43 -3.22,-0.87 -4.83,-1.31 l -0.97,-0.27 0.53,-1.93 0.97,0.27 z m 11.57,3.09 c 1.61,0.42 3.23,0.83 4.84,1.23 l 0.97,0.25 -0.49,1.94 -0.97,-0.25 c -1.61,-0.4 -3.23,-0.81 -4.85,-1.23 l -0.96,-0.25 0.5,-1.94 0.96,0.25 z m 11.63,2.9 c 1.61,0.4 3.23,0.78 4.85,1.16 l 0.97,0.23 -0.45,1.94 -0.97,-0.22 c -1.63,-0.38 -3.25,-0.77 -4.87,-1.16 l -0.97,-0.23 0.46,-1.95 0.98,0.23 z m 11.66,2.72 c 1.62,0.37 3.25,0.72 4.87,1.08 l 0.98,0.21 -0.42,1.95 -0.98,-0.21 c -1.63,-0.35 -3.26,-0.71 -4.89,-1.08 l -0.97,-0.22 0.44,-1.95 0.97,0.22 z m 11.71,2.53 c 1.63,0.34 3.25,0.67 4.89,1 l 0.98,0.19 -0.4,1.96 -0.98,-0.19 c -1.63,-0.33 -3.27,-0.66 -4.9,-1 l -0.98,-0.21 0.41,-1.95 0.98,0.2 z m 11.74,2.34 c 1.63,0.31 3.27,0.61 4.9,0.92 l 0.99,0.18 -0.36,1.96 -0.99,-0.18 c -1.64,-0.3 -3.28,-0.61 -4.91,-0.92 l -0.99,-0.19 0.38,-1.96 0.98,0.19 z m 11.78,2.15 c 1.64,0.28 3.28,0.56 4.92,0.84 l 0.99,0.16 -0.33,1.97 -0.99,-0.16 c -1.64,-0.28 -3.29,-0.56 -4.93,-0.84 l -0.99,-0.17 0.35,-1.97 0.98,0.17 z m 11.82,1.96 c 1.64,0.25 3.28,0.51 4.93,0.76 l 0.99,0.14 -0.3,1.98 -0.99,-0.15 c -1.65,-0.24 -3.3,-0.5 -4.95,-0.76 l -0.98,-0.15 0.31,-1.98 0.99,0.16 z m 11.84,1.77 c 1.65,0.23 3.3,0.45 4.95,0.68 l 0.99,0.13 -0.27,1.98 -0.99,-0.13 c -1.65,-0.22 -3.31,-0.45 -4.96,-0.68 l -0.99,-0.15 0.28,-1.98 0.99,0.15 z m 11.88,1.57 c 1.65,0.21 3.3,0.41 4.95,0.61 l 1,0.11 -0.24,1.99 -0.99,-0.12 c -1.66,-0.19 -3.32,-0.39 -4.97,-0.6 l -0.99,-0.13 0.24,-1.98 1,0.12 z m 11.9,1.39 c 1.65,0.18 3.31,0.35 4.97,0.52 l 0.99,0.1 -0.2,1.99 -1,-0.1 c -1.66,-0.17 -3.32,-0.34 -4.98,-0.52 l -0.99,-0.11 0.21,-1.99 1,0.11 z m 11.93,1.2 c 1.65,0.15 3.31,0.3 4.97,0.44 l 1,0.08 -0.17,2 -1,-0.09 c -1.66,-0.14 -3.32,-0.29 -4.99,-0.44 l -0.99,-0.09 0.18,-1.99 1,0.09 z m 11.95,1 c 1.66,0.13 3.32,0.25 4.98,0.36 l 1,0.07 -0.14,2 -1,-0.07 c -1.66,-0.12 -3.33,-0.24 -5,-0.36 l -0.99,-0.08 0.15,-1.99 1,0.07 z m 11.97,0.81 c 0.27,0.02 0.55,0.04 0.83,0.05 1.38,0.08 2.76,0.16 4.14,0.23 l 1,0.06 -0.11,1.99 -0.99,-0.05 c -1.39,-0.07 -2.77,-0.15 -4.16,-0.23 -0.28,-0.02 -0.55,-0.03 -0.83,-0.05 l -1,-0.06 0.12,-2 1,0.06 z m 11.94,0.62 c 1.65,0.07 3.31,0.14 4.97,0.2 l 1,0.04 -0.07,2 -1,-0.04 c -1.67,-0.06 -3.33,-0.13 -4.99,-0.2 l -1,-0.05 0.09,-1.99 1,0.04 z m 11.94,0.42 c 1.66,0.05 3.33,0.09 4.99,0.12 l 1,0.02 -0.04,2 -1,-0.02 c -1.67,-0.03 -3.33,-0.07 -5,-0.12 l -1,-0.02 0.06,-2 0.99,0.02 z m 11.97,0.24 c 1.66,0.02 3.32,0.03 4.99,0.04 l 1,0 -0.01,2 -1,0 c -1.67,-0.01 -3.34,-0.02 -5.01,-0.04 l -1,-0.02 0.03,-2 1,0.02 z m 11.97,0.04 c 1.66,-0.01 3.33,-0.02 4.99,-0.04 l 1,-0.02 0.03,2 -1,0.02 c -1.67,0.02 -3.34,0.03 -5.01,0.04 l -1,0 -0.01,-2 1,0 z m 11.99,-0.16 c 1.66,-0.03 3.33,-0.07 4.99,-0.12 l 1,-0.02 0.05,2 -1,0.02 c -1.67,0.05 -3.33,0.09 -5,0.12 l -1,0.02 -0.04,-2 1,-0.02 z m 11.98,-0.34 c 1.67,-0.06 3.33,-0.13 5,-0.2 l 1,-0.05 0.09,2 -1,0.04 c -1.67,0.08 -3.34,0.15 -5.01,0.21 l -1,0.03 -0.08,-1.99 1,-0.04 z m 12,-0.54 c 1.66,-0.09 3.33,-0.18 4.99,-0.28 l 1,-0.06 0.12,1.99 -1,0.06 c -1.67,0.1 -3.34,0.2 -5.01,0.29 l -1,0.05 -0.1,-2 1,-0.05 z m 11.99,-0.74 c 1.67,-0.11 3.33,-0.23 5,-0.36 l 1,-0.08 0.15,2 -1,0.07 c -1.67,0.13 -3.34,0.25 -5.01,0.37 l -1,0.07 -0.14,-2 1,-0.07 z M 58.35,132.9 c 1.2,0.6 2.4,1.19 3.6,1.77 l 0.89,0.44 -0.88,1.8 -0.89,-0.44 c -1.21,-0.59 -2.41,-1.18 -3.61,-1.78 l -0.9,-0.44 0.9,-1.79 0.89,0.44 z"
           style="fill:#0099cc;fill-opacity:1;fill-rule:nonzero;stroke:#0099cc;stroke-width:8;stroke-miterlimit:4;stroke-opacity:1;stroke-dasharray:none"
           id="path3064"
           inkscape:connector-curvature="0" /><path
           d="m 401.43,301.23 c -32.78,-6.25 -66.68,1.28 -93.72,20.84 -27.04,19.55 -44.82,49.39 -49.14,82.48 l -0.13,0.99 -1.98,-0.26 0.13,-0.99 c 4.39,-33.64 22.46,-63.97 49.95,-83.84 27.48,-19.88 61.95,-27.54 95.26,-21.18 l 0.99,0.19 -0.38,1.96 -0.98,-0.19 z M 256.65,404.8 c -10.52,-25.35 -32.31,-44.31 -58.87,-51.24 -26.57,-6.93 -54.84,-1.03 -76.41,15.95 l -0.79,0.62 -1.23,-1.57 0.78,-0.62 c 22.06,-17.37 50.98,-23.4 78.15,-16.32 27.17,7.09 49.45,26.48 60.22,52.41 l 0.38,0.93 -1.84,0.76 -0.39,-0.92 z M 119.82,368.36 c 7.47,-18.69 4.49,-39.94 -7.85,-55.85 -12.33,-15.9 -32.17,-24.08 -52.13,-21.5 l -0.99,0.13 -0.26,-1.98 1,-0.13 c 20.66,-2.68 41.19,5.79 53.96,22.26 12.77,16.46 15.86,38.46 8.13,57.81 l -0.37,0.93 -1.86,-0.75 0.37,-0.92 z M 59.11,289.23 C 71.06,280.09 76.79,264.95 73.87,250.19 70.94,235.43 59.88,223.62 45.35,219.73 l -0.97,-0.26 0.52,-1.93 0.96,0.25 c 15.27,4.09 26.9,16.5 29.97,32.01 3.07,15.51 -2.95,31.42 -15.51,41.02 l -0.79,0.6 -1.22,-1.59 0.8,-0.6 z M 45.34,217.79 C 57.1,214.64 65.9,204.85 67.78,192.82 69.67,180.8 64.28,168.79 54.05,162.19 l -0.84,-0.55 1.09,-1.68 0.84,0.55 c 10.9,7.03 16.62,19.81 14.62,32.62 -2.01,12.81 -11.37,23.24 -23.9,26.6 l -0.96,0.26 -0.52,-1.94 0.96,-0.26 z m 9.31,-57.44 c 10.82,0.53 20.91,-5.47 25.61,-15.23 4.71,-9.76 3.11,-21.39 -4.05,-29.52 l -0.66,-0.75 1.5,-1.32 0.66,0.75 c 7.69,8.73 9.41,21.23 4.35,31.71 -5.05,10.49 -15.89,16.93 -27.51,16.36 l -1,-0.05 0.1,-2 1,0.05 z m 22.63,-46.36 c 10.08,3.4 21.22,0.42 28.26,-7.57 7.03,-7.98 8.59,-19.41 3.95,-28.99 l -0.44,-0.9 1.8,-0.87 0.44,0.9 c 4.99,10.3 3.32,22.59 -4.25,31.18 -7.57,8.59 -19.55,11.8 -30.4,8.15 l -0.95,-0.32 0.64,-1.9 0.95,0.32 z m 33.67,-37.82 c 9.55,6.47 22.04,6.66 31.78,0.48 9.74,-6.19 14.87,-17.57 13.07,-28.97 l -0.16,-0.99 1.98,-0.31 0.16,0.99 c 1.92,12.18 -3.57,24.35 -13.98,30.96 -10.41,6.62 -23.76,6.42 -33.97,-0.51 l -0.83,-0.56 1.12,-1.65 0.83,0.56 z M 157.56,46.9 c 8.68,10.71 22.76,15.45 36.15,12.16 13.39,-3.29 23.67,-14.02 26.39,-27.54 l 0.2,-0.98 1.96,0.4 -0.2,0.98 C 219.19,46.19 208.33,57.53 194.19,61 180.05,64.48 165.17,59.47 156.01,48.16 l -0.63,-0.78 1.56,-1.26 0.62,0.78 z m 64.47,-15.5 c 5.75,17.04 20.35,29.59 38.06,32.7 17.72,3.11 35.71,-3.71 46.92,-17.78 l 0.62,-0.78 1.57,1.24 -0.63,0.79 C 296.91,62.2 278.18,69.3 259.75,66.07 241.31,62.83 226.12,49.78 220.13,32.04 l -0.31,-0.95 1.89,-0.64 0.32,0.95 z m 86.75,15.69 c -3.66,24.37 4.92,48.97 22.93,65.78 18.01,16.81 43.15,23.67 67.21,18.34 l 0.97,-0.22 0.44,1.96 -0.98,0.21 c -24.7,5.48 -50.51,-1.56 -69.01,-18.82 C 311.85,97.07 303.04,71.81 306.8,46.79 l 0.15,-0.98 1.98,0.29 -0.15,0.99 z m 91.03,85.84 c -23.47,21.5 -36.62,52.01 -36.15,83.83 0.47,31.83 14.52,61.93 38.61,82.73 l 0.76,0.66 -1.31,1.51 -0.76,-0.65 c -24.52,-21.17 -38.83,-51.82 -39.3,-84.22 -0.48,-32.4 12.91,-63.45 36.8,-85.34 l 0.74,-0.68 1.35,1.48 -0.74,0.68 z"
           style="fill:#cc6600;fill-opacity:1;fill-rule:nonzero;stroke:#cc6600;stroke-width:8;stroke-miterlimit:4;stroke-opacity:1;stroke-dasharray:none"
           id="path3066"
           inkscape:connector-curvature="0" /><path
           d="m 241.5,19 c 113.77,0 206,92.23 206,206 0,113.77 -92.23,206 -206,206 -113.77,0 -206,-92.23 -206,-206 0,-113.77 92.23,-206 206,-206 z m 0,2 c -112.67,0 -204,91.33 -204,204 0,112.67 91.33,204 204,204 112.67,0 204,-91.33 204,-204 0,-112.67 -91.33,-204 -204,-204 z"
           style="fill:#000000;fill-opacity:1;fill-rule:nonzero;stroke:#000000;stroke-width:8;stroke-miterlimit:4;stroke-opacity:1;stroke-dasharray:none"
           id="path3068"
           inkscape:connector-curvature="0" /></g></g></g></svg>