v -12.5 0.0 -12.5
v -12.5 0.0 12.5
v 12.5 0.0 -12.5
v 12.5 0.0 12.5
v 0.0 0.0 0.0
v -12.5 0.0 0.0
v 0.0 0.0 -12.5
v 12.5 0.0 0.0
v 0.0 0.0 12.5
v 6.25 0.0 -6.25
v -12.5 0.0 6.25
v -6.25 0.0 -12.5
v 12.5 0.0 -6.25
v 6.25 0.0 12.5
v -6.25 0.0 6.25
v -12.5 0.0 -6.25
v 6.25 0.0 -12.5
v 12.5 0.0 6.25
v -6.25 0.0 12.5
v 0.0 0.0 -6.25
v -6.25 0.0 -6.25
v -6.25 0.0 0.0
v 0.0 0.0 6.25
v 6.25 0.0 6.25
v 6.25 0.0 0.0
vt 0.0 0.0
vt 0.0 0.0
vt 0.0 0.0
vt 0.0 0.0
vt 0.0 0.0
vt 0.0 0.0
vt 0.0 0.0
vt 0.0 0.0
vt 0.0 0.0
vt 0.0 0.0
vt 0.0 0.0
vt 0.0 0.0
vt 0.0 0.0
vt 0.0 0.0
vt 0.0 0.0
vt 0.0 0.0
vt 0.0 0.0
vt 0.0 0.0
vt 0.0 0.0
vt 0.0 0.0
vt 0.0 0.0
vt 0.0 0.0
vt 0.0 0.0
vt 0.0 0.0
vt 0.0 0.0
vn 0.0 1.0 0.0
vn 0.0 1.0 0.0
vn 0.0 1.0 0.0
vn 0.0 1.0 0.0
vn 0.0 1.0 0.0
vn 0.0 1.0 0.0
vn 0.0 1.0 0.0
vn 0.0 1.0 0.0
vn 0.0 1.0 0.0
vn 0.0 1.0 0.0
vn 0.0 1.0 0.0
vn 0.0 1.0 0.0
vn 0.0 1.0 0.0
vn 0.0 1.0 0.0
vn 0.0 1.0 0.0
vn 0.0 1.0 0.0
vn 0.0 1.0 0.0
vn 0.0 1.0 0.0
vn 0.0 1.0 0.0
vn 0.0 1.0 0.0
vn 0.0 1.0 0.0
vn 0.0 1.0 0.0
vn 0.0 1.0 0.0
vn 0.0 1.0 0.0
vn 0.0 1.0 0.0

f  21/21/21 22/22/22 20/20/20
f  24/24/24 25/25/25 23/23/23
f  17/17/17 20/20/20 10/10/10
f  16/16/16 21/21/21 12/12/12
f  15/15/15 22/22/22 11/11/11
f  19/19/19 23/23/23 15/15/15
f  18/18/18 24/24/24 14/14/14
f  10/10/10 25/25/25 13/13/13
f  6/6/6 22/22/22 21/21/21
f  5/5/5 20/20/20 22/22/22
f  7/7/7 21/21/21 20/20/20
f  8/8/8 25/25/25 24/24/24
f  5/5/5 23/23/23 25/25/25
f  9/9/9 24/24/24 23/23/23
f  7/7/7 20/20/20 17/17/17
f  5/5/5 10/10/10 20/20/20
f  3/3/3 17/17/17 10/10/10
f  6/6/6 21/21/21 16/16/16
f  7/7/7 12/12/12 21/21/21
f  1/1/1 16/16/16 12/12/12
f  5/5/5 22/22/22 15/15/15
f  6/6/6 11/11/11 22/22/22
f  2/2/2 15/15/15 11/11/11
f  9/9/9 23/23/23 19/19/19
f  5/5/5 15/15/15 23/23/23
f  2/2/2 19/19/19 15/15/15
f  8/8/8 24/24/24 18/18/18
f  9/9/9 14/14/14 24/24/24
f  4/4/4 18/18/18 14/14/14
f  5/5/5 25/25/25 10/10/10
f  8/8/8 13/13/13 25/25/25
f  3/3/3 10/10/10 13/13/13
