v -0.206972 0.0740737 0.544664
v -0.398695 -0.0740794 0.501089
v -0.211327 -0.187367 0.588234
v -0.511983 -0.235298 0.400872
v -0.56863 0.0348535 0.405227
v -0.35948 0.178646 0.50545
v -0.525054 0.313721 0.387801
v -0.189545 0.30065 0.544664
v 0.124182 0.0740737 0.509805
v -0.455336 -0.33987 0.544664
v -0.411766 -0.427021 0.671024
v -0.237476 -0.413949 0.745097
v -0.250547 -0.535954 0.797389
v -0.346403 -0.562097 0.758169
v 0.0152491 -0.33116 0.531593
v -0.106755 -0.496734 0.692812
v -0.254903 -0.692812 0.749458
v -0.0631798 -0.601311 0.55338
v -0.14597 -0.666669 0.666669
v -0.250547 -0.727671 0.583879
v -0.198256 -0.714599 0.42266
v 0.0283206 -0.514166 0.383445
v -0.124182 -0.623099 0.196078
v -0.285401 -0.692812 0.413944
v -0.333331 -0.596956 0.226582
v -0.333331 -0.418305 0.413944
v 0.233115 -0.366019 0.313727
v 0.215688 -0.156864 0.457519
v -0.342048 -0.623099 -0.0915061
v -0.708061 -0.431376 0.0697184
v -0.647058 -0.501095 -0.0915061
v -0.716777 -0.318088 0.169935
v -0.699344 -0.143792 0.235292
v -0.747275 0.00871052 0.235292
v -0.747275 0.165574 0.191723
v -0.764708 0.291939 0.12636
v -0.747275 0.461874 0.0130715
v -0.337692 0.535948 0.366013
v -0.472768 0.644881 0.0653574
v -0.272329 0.753814 0.0827899
v -0.294117 0.797383 0.278868
v -0.307188 0.801744 0.435731
v -0.324621 0.779957 0.583879
v -0.355119 0.714594 0.710238
v -0.407405 0.59695 0.692812
v -0.442264 0.505444 0.610022
v -0.477123 0.413944 0.51416
v -0.285401 0.509805 0.666669
v -0.185184 0.605661 0.631809
v -0.0326816 0.518516 0.479301
v -0.198256 0.72331 0.575162
v -0.124182 0.745097 0.278868
v 0.189545 0.479301 0.357297
v -0.0413921 0.675379 0.352942
v -0.843136 -0.0392202 -0.0522859
v -0.764708 -0.33116 0.0348592
v -0.816994 -0.152508 -0.178651
v -0.87364 -0.0522916 -0.187362
v -0.816994 0.108933 -0.204794
v -0.816994 0.25708 -0.00435526
v -0.795206 0.387795 -0.0653574
v -0.764708 0.440087 -0.152503
v -0.642703 0.535948 -0.370368
v -0.516338 0.636165 -0.21351
v -0.856208 0.265791 -0.148147
v -0.816994 0.261435 -0.291939
v -0.847497 0.239648 -0.418299
v -0.82571 0.265791 -0.479301
v -0.912855 -0.0697184 -0.270152
v -0.947714 0.0130715 -0.326799
v -0.938998 0.0740737 -0.392156
v -0.799567 -0.344231 -0.108933
v -0.620916 -0.509805 -0.331154
v -0.764708 -0.287584 -0.244009
v -0.799567 -0.291939 -0.352942
v -0.9085 -0.174296 -0.33987
v -1.0 -0.0697184 -0.409588
v -0.965141 -0.148153 -0.461874
v -0.95643 -0.0610022 -0.549019
v -0.978212 0.021782 -0.483662
v -0.729848 -0.357302 -0.501089
v -0.921571 -0.230937 -0.544664
v -0.821354 -0.222227 -0.662308
v -0.9085 -0.16558 -0.623093
v -0.342048 -0.557736 -0.383445
v -0.381262 -0.300656 -0.727671
v -0.167757 -0.557736 -0.501089
v -0.599128 -0.252725 -0.692812
v -0.420482 -0.0697184 -0.797389
v -0.14597 -0.610027 -0.631809
v -0.947714 0.0915004 -0.522877
v -0.891067 0.178646 -0.50545
v -0.869279 -0.0697184 -0.705883
v -0.934643 0.0348535 -0.627454
v -0.847497 0.156858 -0.649236
v -0.620916 0.235292 -0.701528
v -0.559913 0.143786 -0.745097
v -0.315905 0.278862 -0.753814
v -0.211327 0.46623 -0.636165
v -0.0196101 0.440087 -0.784312
v -0.381262 0.505444 -0.579523
v -0.647058 0.374724 -0.601305
v -0.355119 0.653591 -0.344225
v -0.0108939 0.644881 -0.313727
v 0.163396 0.64052 0.104578
v 0.433554 0.0697127 0.322443
v 0.516344 -0.318088 0.0435754
v 0.35948 -0.492378 -0.0653574
v 0.185184 -0.535954 0.0305039
v 0.0631798 -0.618738 -0.313727
v 0.328976 -0.618738 -0.296295
v 0.102394 -0.684101 -0.43137
v 0.612199 -0.396517 -0.16558
v 0.307188 0.522877 -0.779957
v 0.163396 0.549019 -0.562091
v 0.468413 0.400872 0.00871623
v 0.599128 0.374724 -0.261435
v 0.721132 0.357297 -0.50545
v 0.843136 0.326793 -0.718955
v 0.124182 -0.801744 -0.562091
v 0.35948 -0.749458 -0.448803
v 0.559913 0.0479307 0.161219
v 0.673201 0.0304982 -0.0566469
v 0.808283 0.0174267 -0.309366
v 0.891067 -0.00871623 -0.483662
v 1.0 -0.0697184 -0.753814
v 0.355119 0.440087 0.191723
v 0.694989 -0.58824 -0.440087
v 0.886712 -0.230937 -0.457519
v 0.912855 -0.366019 -0.575162
v -0.921571 -0.126365 -0.300656
vt 0.0 0.0 0.0 1.0
vt 0.0 0.0 0.0 1.0
vt 0.0 0.0 0.0 1.0
vt 0.0 0.0 0.0 1.0
vt 0.0 0.0 0.0 1.0
vt 0.0 0.0 0.0 1.0
vt 0.0 0.0 0.0 1.0
vt 0.0 0.0 0.0 1.0
vt 0.0 0.0 0.0 1.0
vt 0.0 0.0 0.0 1.0
vt 0.0 0.0 0.0 1.0
vt 0.0 0.0 0.0 1.0
vt 0.0 0.0 0.0 1.0
vt 0.0 0.0 0.0 1.0
vt 0.0 0.0 0.0 1.0
vt 0.0 0.0 0.0 1.0
vt 0.0 0.0 0.0 1.0
vt 0.0 0.0 0.0 1.0
vt 0.0 0.0 0.0 1.0
vt 0.0 0.0 0.0 1.0
vt 0.0 0.0 0.0 1.0
vt 0.0 0.0 0.0 1.0
vt 0.0 0.0 0.0 1.0
vt 0.0 0.0 0.0 1.0
vt 0.0 0.0 0.0 1.0
vt 0.0 0.0 0.0 1.0
vt 0.0 0.0 0.0 1.0
vt 0.0 0.0 0.0 1.0
vt 0.0 0.0 0.0 1.0
vt 0.0 0.0 0.0 1.0
vt 0.0 0.0 0.0 1.0
vt 0.0 0.0 0.0 1.0
vt 0.0 0.0 0.0 1.0
vt 0.0 0.0 0.0 1.0
vt 0.0 0.0 0.0 1.0
vt 0.0 0.0 0.0 1.0
vt 0.0 0.0 0.0 1.0
vt 0.0 0.0 0.0 1.0
vt 0.0 0.0 0.0 1.0
vt 0.0 0.0 0.0 1.0
vt 0.0 0.0 0.0 1.0
vt 0.0 0.0 0.0 1.0
vt 0.0 0.0 0.0 1.0
vt 0.0 0.0 0.0 1.0
vt 0.0 0.0 0.0 1.0
vt 0.0 0.0 0.0 1.0
vt 0.0 0.0 0.0 1.0
vt 0.0 0.0 0.0 1.0
vt 0.0 0.0 0.0 1.0
vt 0.0 0.0 0.0 1.0
vt 0.0 0.0 0.0 1.0
vt 0.0 0.0 0.0 1.0
vt 0.0 0.0 0.0 1.0
vt 0.0 0.0 0.0 1.0
vt 0.0 0.0 0.0 1.0
vt 0.0 0.0 0.0 1.0
vt 0.0 0.0 0.0 1.0
vt 0.0 0.0 0.0 1.0
vt 0.0 0.0 0.0 1.0
vt 0.0 0.0 0.0 1.0
vt 0.0 0.0 0.0 1.0
vt 0.0 0.0 0.0 1.0
vt 0.0 0.0 0.0 1.0
vt 0.0 0.0 0.0 1.0
vt 0.0 0.0 0.0 1.0
vt 0.0 0.0 0.0 1.0
vt 0.0 0.0 0.0 1.0
vt 0.0 0.0 0.0 1.0
vt 0.0 0.0 0.0 1.0
vt 0.0 0.0 0.0 1.0
vt 0.0 0.0 0.0 1.0
vt 0.0 0.0 0.0 1.0
vt 0.0 0.0 0.0 1.0
vt 0.0 0.0 0.0 1.0
vt 0.0 0.0 0.0 1.0
vt 0.0 0.0 0.0 1.0
vt 0.0 0.0 0.0 1.0
vt 0.0 0.0 0.0 1.0
vt 0.0 0.0 0.0 1.0
vt 0.0 0.0 0.0 1.0
vt 0.0 0.0 0.0 1.0
vt 0.0 0.0 0.0 1.0
vt 0.0 0.0 0.0 1.0
vt 0.0 0.0 0.0 1.0
vt 0.0 0.0 0.0 1.0
vt 0.0 0.0 0.0 1.0
vt 0.0 0.0 0.0 1.0
vt 0.0 0.0 0.0 1.0
vt 0.0 0.0 0.0 1.0
vt 0.0 0.0 0.0 1.0
vt 0.0 0.0 0.0 1.0
vt 0.0 0.0 0.0 1.0
vt 0.0 0.0 0.0 1.0
vt 0.0 0.0 0.0 1.0
vt 0.0 0.0 0.0 1.0
vt 0.0 0.0 0.0 1.0
vt 0.0 0.0 0.0 1.0
vt 0.0 0.0 0.0 1.0
vt 0.0 0.0 0.0 1.0
vt 0.0 0.0 0.0 1.0
vt 0.0 0.0 0.0 1.0
vt 0.0 0.0 0.0 1.0
vt 0.0 0.0 0.0 1.0
vt 0.0 0.0 0.0 1.0
vt 0.0 0.0 0.0 1.0
vt 0.0 0.0 0.0 1.0
vt 0.0 0.0 0.0 1.0
vt 0.0 0.0 0.0 1.0
vt 0.0 0.0 0.0 1.0
vt 0.0 0.0 0.0 1.0
vt 0.0 0.0 0.0 1.0
vt 0.0 0.0 0.0 1.0
vt 0.0 0.0 0.0 1.0
vt 0.0 0.0 0.0 1.0
vt 0.0 0.0 0.0 1.0
vt 0.0 0.0 0.0 1.0
vt 0.0 0.0 0.0 1.0
vt 0.0 0.0 0.0 1.0
vt 0.0 0.0 0.0 1.0
vt 0.0 0.0 0.0 1.0
vt 0.0 0.0 0.0 1.0
vt 0.0 0.0 0.0 1.0
vt 0.0 0.0 0.0 1.0
vt 0.0 0.0 0.0 1.0
vt 0.0 0.0 0.0 1.0
vt 0.0 0.0 0.0 1.0
vt 0.0 0.0 0.0 1.0
vt 0.0 0.0 0.0 1.0
vt 0.0 0.0 0.0 1.0
vt 0.0 0.0 0.0 1.0
vt 0.0 0.0 0.0 1.0
vn -0.17952595422068196 0.06624521583731895 0.9511069331084523
vn -0.43880878799848283 0.01794156904153848 0.8764533105052826
vn -0.1703782200638404 0.2978163700265412 0.8070210524759305
vn -0.5967871961972363 -0.1755635717832161 0.590571248228879
vn -0.5645625477427663 0.00646105984098734 0.7902178049481238
vn -0.36945202531782617 0.06842571623983443 0.9075171414709384
vn -0.5874234513041255 0.21952106056365112 0.5846440216284862
vn -0.011461199098598829 -0.21229543401744255 0.8364665559387173
vn 0.3205006614938438 0.08801660276733618 0.9195084660137685
vn -0.5914095262721103 -0.036493761377890094 0.1924120224082898
vn -0.5262397405358885 0.1127562896204847 0.42106649043263533
vn 0.1554925792879105 0.4133076423201167 0.7809086095306373
vn 9.330537632479042E-4 0.10085495622724244 0.8292001813613332
vn -0.581410439669012 -0.2585343398147778 0.3088086731756975
vn 0.574453745671048 -0.07523382079410591 0.692479230674666
vn 0.6659097141383571 -0.05671472347744506 0.6611917589888621
vn -0.07711449569444818 -0.4115958990676597 0.3955724700012828
vn 0.7822960938885931 -0.44833682911810446 0.25050872740059454
vn 0.5856227605190043 -0.6181878194501844 0.2991309030897917
vn -0.2678951944900653 -0.6340983831778795 0.06326829238034373
vn 0.33231480517386625 -0.8362654606832508 -0.0998197430720563
vn 0.5892921766391128 -0.6714813853129429 0.25083705638269155
vn 0.12722951975768643 -0.9098415646413542 -0.07323751535370197
vn -0.5044031597922487 -0.6172068363734857 -0.13135397632472298
vn -0.4487534497529278 -0.7205009042549809 0.1886923676165904
vn -0.7745477225157505 -0.46200064742141744 0.06946724255348234
vn 0.623751145041577 -0.49519975606226374 0.5710969901077846
vn 0.5607490126917373 -0.20086948607489966 0.7608861235430833
vn -0.1847270568388898 -0.9628214386731516 -0.06702531008754593
vn -0.6746787825228925 -0.5841178537349094 0.2651831498267945
vn -0.6054977700137558 -0.7243613500887308 -0.01388380429856117
vn -0.7143651396545452 -0.35266485976676093 0.5247815086408214
vn -0.7704075726746835 -0.18061673547181928 0.5768301071123013
vn -0.7984772842570947 -0.0526969094305329 0.5170504614111912
vn -0.8243428352769772 0.12477766719106753 0.5061438136905955
vn -0.811624493184619 0.2582695983394796 0.4683661915268917
vn -0.7019527051890072 0.5744727294369187 0.2511672685523843
vn -0.792615839665825 0.42964569772457495 0.007475231159763562
vn -0.5098644638604043 0.7835161556540653 0.26926717404124273
vn -0.22966879092703485 0.7974012768016097 -0.04619036398025513
vn -0.3467717574287264 0.5377617542701555 -0.1001578281509384
vn -0.1687705669558396 0.6026061398302667 0.03342382988910108
vn -0.2907586807098951 0.4973973695728845 0.1093985678549566
vn -0.06806989451782058 0.2566440845319051 0.4491821491169135
vn -0.4592027364553833 0.04955158129057479 0.3020979053041297
vn -0.482946896012043 -0.13424466367648621 0.34360680303043867
vn -0.5481324788466719 -0.026468238453402293 0.2267374997438935
vn 0.0915287450104512 -0.33076803130090965 0.8522640982521561
vn 0.6097179787716089 0.10709283769114004 0.6981706512513891
vn 0.5098298588203848 0.23212956835422027 0.7444987395364896
vn 0.5219271793989644 0.6872226561668984 0.37325064501187344
vn 0.35715462842098383 0.911245215001322 0.03190726539930364
vn 0.5563180914732062 0.47047460647978473 0.6235850310616884
vn 0.6014198339474905 0.6191176480970935 0.419382907900745
vn -0.9276881016779503 -0.07316840519523184 0.23647367138995626
vn -0.8820003049847776 -0.32513946302415164 0.18015054668828268
vn -0.8249575373024459 -0.3554545850479454 0.2711785115310596
vn -0.8603202712046462 -0.04531980220605186 0.3035508930066967
vn -0.8765070817970795 0.179370207579117 0.2334366044725547
vn -0.9331824824954885 0.10295076338127754 0.2439189691523196
vn -0.8925111445424669 0.3894274509935103 0.13614138090284422
vn -0.8375956976019975 0.4859508389076984 -0.050025247328465944
vn -0.5250833654518443 0.7513120685450065 -0.27954577352814486
vn -0.4473357588528646 0.8676720102029105 -0.07561593691377055
vn -0.908749971193382 0.1455956049356476 -0.007050426307529223
vn -0.9387546363784791 0.1344036723076288 -0.019310576551733412
vn -0.8728071634229124 0.38587529159201484 0.13339314351788173
vn -0.6955093535491245 0.5842885515982356 -0.3075399475290663
vn -0.8074890999335006 -0.04536931279853042 0.5218689903121174
vn -0.8100607351901838 0.260282658481127 0.45073213017606606
vn -0.848001777673214 0.45872767188187763 0.2189181597319491
vn -0.8069853264377174 -0.3802630427276662 -0.07217596149690411
vn -0.489729483595114 -0.7458387293654289 -0.17597803736105874
vn -0.7985882496614466 -0.486712513734743 -0.055526417906377384
vn -0.7099240285023606 -0.6375630750109451 0.20772830870886608
vn -0.7309529035617992 -0.5853305326037752 0.3244203879498339
vn -0.8756159279516691 -0.08362744137129015 0.17950938701925873
vn -0.8566132032078886 -0.3896146322249744 -0.029318346938429676
vn -0.9180729348574254 -0.0820201719475771 -0.3489396199106604
vn -0.9076832449412655 0.23306367919841944 -0.11336432276250155
vn -0.40747205632228073 -0.7686321449867446 -0.35467428696808423
vn -0.7034399049573514 -0.5515179613022262 -0.15044159546152377
vn -0.36159049631028295 -0.5364839371449645 -0.686657976865189
vn -0.7473790484410395 -0.29935907998912653 -0.5214734088963274
vn -0.23765392204375654 -0.86952711474349 -0.38119465434926747
vn -0.30134124805344825 -0.6138829701051043 -0.5760482970800879
vn -0.3705249763956512 -0.8291769402328515 -0.11566973022037537
vn -0.21054594654256326 -0.5583789599304522 -0.7505019964417718
vn -0.05987144842037693 -0.14914928072687073 -0.9374641796195512
vn -0.06592349225171294 -0.35682772763742115 -0.5717967118703094
vn -0.8567504655413553 0.3744890559524303 -0.17729634048488674
vn -0.7966385551927001 0.5617512551115039 -0.0878297723585002
vn -0.48016259049051363 -0.011294533402488907 -0.7763453739114347
vn -0.7957538417355307 0.16140048381455802 -0.4500916932997417
vn -0.5834897454151303 0.4990921639659409 -0.5285779315027371
vn -0.322838537540634 0.4377503173499277 -0.7873634993210438
vn -0.20337562986003346 0.20587538225193738 -0.9520048386227704
vn -0.0923346072713056 0.29543522059184474 -0.8622977931248919
vn -0.17335229083470438 0.74673491445713 -0.5855915897501882
vn -0.14374819587063475 0.5170867383197737 -0.6132108228306662
vn -0.1544709949834079 0.712225240103403 -0.6395982700311313
vn -0.46693040922667817 0.5725647839502737 -0.606832383204529
vn -0.15243959350802938 0.8961398346556525 -0.3467283691148632
vn 0.0922662459196419 0.9190223435055755 -0.3023115541035197
vn 0.49730062952085186 0.810834921865306 0.13656951304166998
vn 0.6610035332504557 4.7635772168015477E-4 0.6727846219438112
vn 0.6510077180356401 -0.4671061483970914 0.532671962542256
vn 0.3844549213222979 -0.8097620952186609 0.36164491308569546
vn 0.33570979898947306 -0.9254408960648943 0.1654354488293081
vn -0.05679216739904829 -0.9115143889076066 0.19410379277720305
vn 0.05735589471020595 -0.7965003872894825 0.5453505908001888
vn -0.3174581053724519 -0.7741135506717283 0.4758009546235563
vn 0.6147468320126505 -0.49500604375453783 0.49793168593342557
vn 0.10532205701105526 0.5035855641118725 -0.4174945710521019
vn 0.22686331378536054 0.91631561504254 -0.09259344792074503
vn 0.6757027810212961 0.6074803447990248 0.23213207905826622
vn 0.6228723014912405 0.6267142661989622 0.263332685588794
vn 0.5751014657324042 0.6790651710711921 0.22862328701991677
vn 0.39741665594072406 0.3121145569382147 -0.2444955028845175
vn -0.12568188066781744 -0.4863414285936398 0.21540406280917684
vn 0.20993055583819586 -0.47590292007072876 0.02055594842167088
vn 0.8056440628799102 0.059402396506982064 0.48776763075732676
vn 0.8367000699627113 0.14515846415163022 0.4218830185899005
vn 0.8103168699634207 0.07459251998035321 0.4610344474343261
vn 0.8945962240640872 0.19058514545084176 0.34239224983366784
vn 0.4670424480563184 -0.05445495970194553 -0.2857943969079156
vn 0.6981587678593663 0.510904626863995 0.4451688373023299
vn 0.4840584469716912 -0.44180201485060994 0.12496671761061391
vn 0.7980986461083874 -0.14986617525721865 0.49541316180513695
vn 0.5974016145310571 -0.31631714183160864 -0.07936355553370297
vn -0.7731849841465445 -0.3544938976590322 0.48125674015908965

f  1/1/1 2/2/2 3/3/3
f  4/4/4 2/2/2 5/5/5
f  2/2/2 1/1/1 5/5/5
f  1/1/1 6/6/6 5/5/5
f  6/6/6 7/7/7 5/5/5
f  7/7/7 6/6/6 8/8/8
f  6/6/6 1/1/1 8/8/8
f  9/9/9 1/1/1 3/3/3
f  3/3/3 4/4/4 10/10/10
f  10/10/10 11/11/11 3/3/3
f  11/11/11 12/12/12 3/3/3
f  11/11/11 13/13/13 12/12/12
f  13/13/13 11/11/11 14/14/14
f  12/12/12 15/15/15 3/3/3
f  15/15/15 12/12/12 16/16/16
f  12/12/12 13/13/13 16/16/16
f  13/13/13 17/17/17 16/16/16
f  17/17/17 13/13/13 14/14/14
f  16/16/16 18/18/18 15/15/15
f  18/18/18 16/16/16 19/19/19
f  16/16/16 17/17/17 19/19/19
f  17/17/17 20/20/20 19/19/19
f  20/20/20 21/21/21 19/19/19
f  21/21/21 18/18/18 19/19/19
f  18/18/18 21/21/21 22/22/22
f  21/21/21 23/23/23 22/22/22
f  21/21/21 24/24/24 23/23/23
f  24/24/24 21/21/21 20/20/20
f  24/24/24 25/25/25 23/23/23
f  25/25/25 24/24/24 26/26/26
f  24/24/24 20/20/20 26/26/26
f  20/20/20 17/17/17 26/26/26
f  17/17/17 14/14/14 26/26/26
f  14/14/14 11/11/11 26/26/26
f  11/11/11 10/10/10 26/26/26
f  10/10/10 4/4/4 26/26/26
f  3/3/3 15/15/15 9/9/9
f  15/15/15 27/27/27 28/28/28
f  23/23/23 25/25/25 29/29/29
f  25/25/25 30/30/30 31/31/31
f  30/30/30 25/25/25 32/32/32
f  25/25/25 26/26/26 32/32/32
f  4/4/4 33/33/33 32/32/32
f  18/18/18 22/22/22 15/15/15
f  22/22/22 27/27/27 15/15/15
f  5/5/5 34/34/34 33/33/33
f  34/34/34 5/5/5 35/35/35
f  5/5/5 7/7/7 35/35/35
f  7/7/7 36/36/36 35/35/35
f  36/36/36 7/7/7 37/37/37
f  7/7/7 38/38/38 37/37/37
f  38/38/38 39/39/39 37/37/37
f  39/39/39 38/38/38 40/40/40
f  38/38/38 41/41/41 40/40/40
f  41/41/41 38/38/38 42/42/42
f  38/38/38 43/43/43 42/42/42
f  43/43/43 38/38/38 44/44/44
f  38/38/38 45/45/45 44/44/44
f  45/45/45 38/38/38 46/46/46
f  46/46/46 38/38/38 47/47/47
f  38/38/38 7/7/7 47/47/47
f  7/7/7 8/8/8 47/47/47
f  8/8/8 46/46/46 47/47/47
f  46/46/46 8/8/8 48/48/48
f  8/8/8 49/49/49 48/48/48
f  49/49/49 44/44/44 48/48/48
f  44/44/44 45/45/45 48/48/48
f  49/49/49 8/8/8 50/50/50
f  49/49/49 51/51/51 44/44/44
f  51/51/51 43/43/43 44/44/44
f  43/43/43 51/51/51 42/42/42
f  51/51/51 52/52/52 42/42/42
f  52/52/52 41/41/41 42/42/42
f  41/41/41 52/52/52 40/40/40
f  53/53/53 54/54/54 50/50/50
f  49/49/49 54/54/54 51/51/51
f  54/54/54 49/49/49 50/50/50
f  51/51/51 54/54/54 52/52/52
f  50/50/50 9/9/9 53/53/53
f  9/9/9 50/50/50 8/8/8
f  55/55/55 33/33/33 34/34/34
f  33/33/33 55/55/55 32/32/32
f  55/55/55 56/56/56 32/32/32
f  56/56/56 55/55/55 57/57/57
f  55/55/55 58/58/58 57/57/57
f  58/58/58 55/55/55 59/59/59
f  55/55/55 60/60/60 59/59/59
f  60/60/60 55/55/55 35/35/35
f  55/55/55 34/34/34 35/35/35
f  36/36/36 60/60/60 35/35/35
f  60/60/60 36/36/36 37/37/37
f  37/37/37 61/61/61 60/60/60
f  61/61/61 37/37/37 62/62/62
f  37/37/37 63/63/63 62/62/62
f  63/63/63 37/37/37 64/64/64
f  37/37/37 39/39/39 64/64/64
f  39/39/39 40/40/40 64/64/64
f  62/62/62 65/65/65 61/61/61
f  65/65/65 62/62/62 66/66/66
f  62/62/62 67/67/67 66/66/66
f  67/67/67 62/62/62 68/68/68
f  62/62/62 63/63/63 68/68/68
f  65/65/65 59/59/59 60/60/60
f  59/59/59 69/69/69 58/58/58
f  69/69/69 59/59/59 70/70/70
f  59/59/59 71/71/71 70/70/70
f  71/71/71 59/59/59 67/67/67
f  59/59/59 66/66/66 67/67/67
f  59/59/59 65/65/65 66/66/66
f  56/56/56 30/30/30 32/32/32
f  30/30/30 56/56/56 31/31/31
f  56/56/56 72/72/72 31/31/31
f  72/72/72 56/56/56 57/57/57
f  60/60/60 61/61/61 65/65/65
f  46/46/46 48/48/48 45/45/45
f  31/31/31 29/29/29 25/25/25
f  29/29/29 31/31/31 73/73/73
f  31/31/31 74/74/74 73/73/73
f  74/74/74 31/31/31 72/72/72
f  57/57/57 74/74/74 72/72/72
f  74/74/74 57/57/57 75/75/75
f  57/57/57 76/76/76 75/75/75
f  57/57/57 58/58/58 69/69/69
f  77/77/77 78/78/78 76/76/76
f  78/78/78 77/77/77 79/79/79
f  77/77/77 80/80/80 79/79/79
f  80/80/80 77/77/77 71/71/71
f  77/77/77 70/70/70 71/71/71
f  70/70/70 77/77/77 69/69/69
f  75/75/75 73/73/73 74/74/74
f  73/73/73 75/75/75 81/81/81
f  75/75/75 82/82/82 81/81/81
f  82/82/82 75/75/75 76/76/76
f  82/82/82 83/83/83 81/81/81
f  83/83/83 82/82/82 84/84/84
f  82/82/82 79/79/79 84/84/84
f  79/79/79 82/82/82 78/78/78
f  82/82/82 76/76/76 78/78/78
f  73/73/73 85/85/85 29/29/29
f  85/85/85 73/73/73 86/86/86
f  73/73/73 81/81/81 86/86/86
f  85/85/85 87/87/87 29/29/29
f  87/87/87 85/85/85 86/86/86
f  88/88/88 86/86/86 81/81/81
f  86/86/86 88/88/88 89/89/89
f  88/88/88 83/83/83 89/89/89
f  83/83/83 88/88/88 81/81/81
f  86/86/86 90/90/90 87/87/87
f  71/71/71 91/91/91 80/80/80
f  91/91/91 71/71/71 92/92/92
f  71/71/71 67/67/67 92/92/92
f  67/67/67 68/68/68 92/92/92
f  79/79/79 93/93/93 84/84/84
f  93/93/93 79/79/79 94/94/94
f  79/79/79 91/91/91 94/94/94
f  91/91/91 79/79/79 80/80/80
f  92/92/92 95/95/95 91/91/91
f  92/92/92 68/68/68 95/95/95
f  91/91/91 95/95/95 94/94/94
f  95/95/95 93/93/93 94/94/94
f  93/93/93 95/95/95 96/96/96
f  95/95/95 68/68/68 96/96/96
f  93/93/93 83/83/83 84/84/84
f  83/83/83 93/93/93 89/89/89
f  93/93/93 97/97/97 89/89/89
f  97/97/97 93/93/93 96/96/96
f  89/89/89 97/97/97 98/98/98
f  98/98/98 99/99/99 100/100/100
f  99/99/99 98/98/98 101/101/101
f  98/98/98 96/96/96 101/101/101
f  98/98/98 97/97/97 96/96/96
f  102/102/102 68/68/68 63/63/63
f  68/68/68 102/102/102 96/96/96
f  102/102/102 101/101/101 96/96/96
f  101/101/101 102/102/102 63/63/63
f  64/64/64 103/103/103 63/63/63
f  103/103/103 64/64/64 40/40/40
f  103/103/103 101/101/101 63/63/63
f  101/101/101 104/104/104 99/99/99
f  104/104/104 101/101/101 103/103/103
f  40/40/40 104/104/104 103/103/103
f  40/40/40 52/52/52 104/104/104
f  52/52/52 105/105/105 104/104/104
f  9/9/9 106/106/106 53/53/53
f  106/106/106 9/9/9 28/28/28
f  106/106/106 27/27/27 107/107/107
f  27/27/27 106/106/106 28/28/28
f  27/27/27 108/108/108 107/107/107
f  108/108/108 27/27/27 22/22/22
f  22/22/22 109/109/109 108/108/108
f  109/109/109 22/22/22 23/23/23
f  109/109/109 110/110/110 108/108/108
f  110/110/110 109/109/109 23/23/23
f  23/23/23 29/29/29 110/110/110
f  110/110/110 111/111/111 108/108/108
f  111/111/111 110/110/110 112/112/112
f  110/110/110 90/90/90 112/112/112
f  90/90/90 110/110/110 87/87/87
f  110/110/110 29/29/29 87/87/87
f  108/108/108 111/111/111 113/113/113
f  108/108/108 113/113/113 107/107/107
f  114/114/114 100/100/100 115/115/115
f  100/100/100 104/104/104 115/115/115
f  104/104/104 105/105/105 115/115/115
f  116/116/116 117/117/117 115/115/115
f  117/117/117 118/118/118 115/115/115
f  115/115/115 118/118/118 114/114/114
f  118/118/118 119/119/119 114/114/114
f  120/120/120 112/112/112 90/90/90
f  112/112/112 120/120/120 111/111/111
f  120/120/120 121/121/121 111/111/111
f  100/100/100 99/99/99 104/104/104
f  2/2/2 4/4/4 3/3/3
f  5/5/5 33/33/33 4/4/4
f  116/116/116 122/122/122 123/123/123
f  123/123/123 117/117/117 116/116/116
f  117/117/117 123/123/123 124/124/124
f  117/117/117 124/124/124 118/118/118
f  124/124/124 125/125/125 118/118/118
f  125/125/125 119/119/119 118/118/118
f  119/119/119 125/125/125 126/126/126
f  122/122/122 106/106/106 107/107/107
f  105/105/105 116/116/116 115/115/115
f  54/54/54 53/53/53 105/105/105
f  52/52/52 54/54/54 105/105/105
f  105/105/105 127/127/127 116/116/116
f  122/122/122 116/116/116 127/127/127
f  106/106/106 122/122/122 127/127/127
f  53/53/53 127/127/127 105/105/105
f  121/121/121 128/128/128 113/113/113
f  121/121/121 113/113/113 111/111/111
f  113/113/113 128/128/128 124/124/124
f  128/128/128 129/129/129 124/124/124
f  129/129/129 128/128/128 130/130/130
f  107/107/107 113/113/113 122/122/122
f  113/113/113 123/123/123 122/122/122
f  123/123/123 113/113/113 124/124/124
f  1/1/1 9/9/9 8/8/8
f  9/9/9 15/15/15 28/28/28
f  4/4/4 32/32/32 26/26/26
f  106/106/106 127/127/127 53/53/53
f  57/57/57 131/131/131 76/76/76
f  131/131/131 77/77/77 76/76/76
f  69/69/69 131/131/131 57/57/57
f  131/131/131 69/69/69 77/77/77
f  129/129/129 125/125/125 124/124/124
f  125/125/125 130/130/130 126/126/126
f  130/130/130 125/125/125 129/129/129
f  121/121/121 120/120/120 90/90/90
f  90/90/90 86/86/86 89/89/89
f  90/90/90 89/89/89 98/98/98
f  90/90/90 98/98/98 100/100/100
f  90/90/90 100/100/100 114/114/114
f  90/90/90 114/114/114 119/119/119
f  90/90/90 119/119/119 126/126/126
f  90/90/90 126/126/126 130/130/130
f  90/90/90 130/130/130 128/128/128
f  90/90/90 128/128/128 121/121/121
