v -0.5797940361305399 0.9549143600267126 0.9952158651193296
v -0.599999893063788 1.0 0.5999998909664046
v -1.0000000000000002 1.0 0.6000000000000004
v -1.0 1.0 1.0
vt 0.0 0.0 0.0 1.0
vt 0.9478498895410745 0.0 0.0 1.0
vt 0.9961414320764072 0.9506886699380692 0.0 1.0
vt 0.045764360472696324 1.004762300320119 0.0 1.0
vn 0.05334093572317581 0.9939245440005323 0.05667167444151883
vn 3.0895573967872805E-8 0.9935558792861009 0.11334334888303771
vn 0.05334093572317581 0.9939245440005323 0.05667167444151883
vn 0.10668184055077765 0.9942932087149637 -6.000376367169737E-17

f  1/1/1 2/2/2 3/3/3
f  3/3/3 4/4/4 1/1/1
